<?xml version="1.0" standalone="no"?>
<!DOCTYPE svg PUBLIC "-//W3C//DTD SVG 20010904//EN"
 "http://www.w3.org/TR/2001/REC-SVG-20010904/DTD/svg10.dtd">
<svg version="1.0" xmlns="http://www.w3.org/2000/svg"
 width="32.000000pt" height="32.000000pt" viewBox="0 0 32.000000 32.000000"
 preserveAspectRatio="xMidYMid meet">

<g transform="translate(0.000000,32.000000) scale(0.100000,-0.100000)"
fill="#000000" stroke="none">
<path d="M140 308 c-50 -14 -57 -22 -64 -78 -5 -39 -3 -55 14 -82 28 -46 26
-53 -20 -67 -38 -11 -70 -42 -70 -68 0 -10 37 -13 160 -13 123 0 160 3 160 13
0 26 -32 57 -70 68 -46 14 -47 17 -21 62 13 23 18 51 17 95 -1 83 -20 95 -106
70z"/>
</g>
</svg>
