<?xml version="1.0" encoding="UTF-8"?>
<svg enable-background="new 0 0 1603.598 1660.528" version="1.1" viewBox="0 0 1603.598 1660.528" xmlns="http://www.w3.org/2000/svg">
 <path d="m460.79 178.81c-19.926-50.799-40.608-96.959-71.642-113.74-9.982-5.396-19.543-4.025-27.928 0 3.312-17.67 11.91-29.375 27.118-27.118 50.962 7.56 60.913 77.358 72.452 140.85z"/>
 <path d="m475.36 142.79c-2.258-46.665 0.937-89.432 29.952-107.26 18.891-11.607 31.453-2.752 38.452 14.166-13.465-2.202-24.983-0.1-33.19 9.714-15.089 18.045-25.683 49.34-35.214 83.38z"/>
 <path d="m498.43 190.15c5.759-49.478 46.952-99.974 82.57-99.57 18.195 0.207 30.267 11.097 31.976 23.881-18.825-2.782-36.138-3.431-49.785 2.429-29.674 12.74-48.71 41.279-64.761 73.26z"/>
 <path d="m503.29 242.36c14.233-57.142 47.703-97.461 101.59-93.094 35.354 2.865 62.837 29.29 84.594 63.547-89.634-6.342-143.5 31.8-178.09 93.903 18.079-55.905 38.83-108.33 97.546-111.31-37.686-27.418-72.07 2.684-105.64 46.952z"/>
 <path d="m457.96 365c-25.217-60.249-60.155-112.86-112.52-151.78 67.448-17.703 97.952 12.69 112.12 64.356-10.93-16.89-28.199-26.231-44.928-31.976 23.541 38.004 40.847 77.198 45.333 119.4z"/>
 <path d="m456.74 687.99c-16.303-210.24-101.19-334.33-213.71-347.68-66.64-7.911-120.14 16.421-165.14 44.523 35.508-92.648 95.118-161.91 186.59-160.69 96.044 1.288 140.5 74.694 167.97 150.97-37.604-59.792-82.364-109.09-143.28-120.21-46.52-8.491-67.588 5.429-66.38 17.809 191.12 27.808 245.4 187.47 233.95 415.28z"/>
 <path d="m483.86 455.66c26.649-181.14 161.9-253.38 319.76-175.66-81.546 6.055-135.48 35.357-169.59 81.356-29.387 37.025-53.755 82.811-66.38 137.62-20.847 90.501-42.032 166.74-76.904 226.66 11.808-135.61 45.511-243.34 59.499-290.61 17.761-60.023 89.434-139.04 101.59-139.64-83.901 21.109-139.84 74.591-167.97 160.28z"/>
 <path d="m472.12 819.94c11.212-57.344 65.503-83.135 141.26-110.09 36.195-12.88 58.08-41.647 73.261-72.856 25.958 136.38-35.34 174.09-133.97 169.59 70.204-23.523 107.98-48.784 99.975-76.499-25.028 20.241-53.738 34.989-86.213 44.118-37.643 12.497-69.478 27.566-94.308 45.738z"/>
 <path d="m772.05 713.49c-46.232-192.46 47.761-317.73 243.66-282.11-58.145 27.486-104.84 67.238-120.21 126.69-20.877 80.732-31.794 151.12-65.976 186.59-20.677-103.44-7.876-188.45 46.547-250.54-77.996 38.46-111.94 112.17-104.02 219.38z"/>
 <path d="m826.69 809.02c138.43-108.07 225.04-186.19 346.47-115.76-35.632 4.193-66.254 15.214-88.466 37.092-94.89 93.464-178.63 127.64-260.03 109.02 60.164-15.725 102.78-41.489 135.59-72.856-12.14-5.017-27.646 5.3-48.783 15.522-20.025 9.684-84.786 26.978-84.786 26.978z"/>
 <path d="m1316.3 763.89c-19.53-59.39-11.014-105.45 40.981-130.84-8.676 46.475-12.301 100.5-14.875 157.55-0.498-47.873-2.093-90.899-7.893-115.36-14.835 13.035-17.214 49.539-18.213 88.641z"/>
 <path d="m1366.1 710.46c23.955-135.85 79.926-201.26 191.85-143.59-95.3 42.198-153.32 126.71-182.14 244.37 0.65-67.988 13.053-139.03 99.266-229.5-47.902 13.004-83.567 57.617-108.98 128.71z"/>
 <path d="m1404.1 799.1c24.364-63.956 67.259-116.12 130.84-155.12-4.64-12.887-26.639-12.159-55.856-5.768 38.096-26.614 73.724-42.088 95.32 5.768-64.946 27.868-120.46 83.212-170.3 155.12z"/>
 <path d="m1466.3 747.19c27.51-18.17 75.891-28.232 84.695-27.625 8.901 0.614 6.008-13.785-3.643-15.178-29.446-4.25-63.402 18.173-81.052 42.803z"/>
 <path d="m940.83 1099.6c10.67-93.171-66.379-162.71-185.18-221 51.374 9.436 97.844 28.714 139.64 57.374-0.647-15.307-39.786-41.283-83.784-68.606 64.792 20.477 144.8 65.874 165.44 131.44 15.264 48.488 1.17 84.937-36.125 100.78z"/>
 <path d="m607.21 1269.3c105.39 18.973 187.55 4.047 224.34-77.106 26.362 94.502-27.121 130.41-141.76 121.43 23.146-3.895 42.605-10.354 55.249-21.553-60.375 4.002-106.8-3.199-137.82-22.767z"/>
 <path d="m739.87 1332.8c129.97-7.399 234.43-40.095 297.8-113.53 13.357 106.86-129.62 173.94-242.85 146.32 78.927-10.018 107.8-21.822 102-29.142-57.232 10.107-109.56 8.922-156.94-3.643z"/>
 <path d="m1317.6 1296.9c65.304-0.883 107.49 21.538 105.64 88.338-37.182-29.106-99.093-47.047-181.23-55.856 41.288-16.33 87.748-11.816 139.03 12.143-9.044-16.99-31.839-31.577-63.445-44.625z"/>
 <path d="m1335.5 1630.3c45.193-125.69-42.256-200.37-209.46-244.37 126.57-10.396 220.09 34.907 268.96 155.43 11.51-90.953-48.738-152.95-166.96-191.55 148.69 14.584 226.46 88.034 190.94 187.91-13.971 39.283-44.786 68.873-83.481 92.587z"/>
 <path d="m493.07 959.69c62.551-78.367 204.89-90.646 278.67 11.839 56.65 78.682 42.499 174.55-14.268 211.28-66.481 48.571-164.28 40.739-203.09-39.16-25.803-53.124-10.656-142.16 66.785-155.43 54.945-9.411 99.57 37.339 85.606 93.802-4.63 20.434-18.144 29.604-37.339 31.571-12.972-1.933-16.999-8.927-12.143-20.946 6.643-10.403 8.977-20.462 5.464-30.053-9.176-15.882-34.824-22.994-54.642-14.571-24.285 10.321-33.247 47.62-20.643 78.32 20.032 48.789 63.567 65.8 112.62 48.874 63.856-22.033 89.258-76.776 74.981-146.62-9.461-46.288-45.964-86.928-98.963-108.68-66.825-27.422-130.28-2.063-183.05 39.768z"/>
 <path d="m242.63 740.51c-31.936-13.255-37.36-48.435-21.553-61.32 27.928-22.767 77.258-15.031 101.39 20.643 28.342 41.896 14.765 87.278-22.767 114.75-57.947 42.411-134.78 31.571-175.16-3.946-58.949-51.858-73.364-112.58-43.714-171.82 48.662-84.212 127.19-118.09 198.84-101.7 86.584 19.812 130.86 91.294 131.44 184.26 0.415 66.715-13.895 129.86-28.232 191.25-23.678 101.39-8.879 228.2 56.16 332.4 110.12 176.44 263.58 223.49 449.88 194.28-182.61 11.727-323.47-44.402-414.06-186.69-52.952-83.165-76.499-189.73-54.945-264.1 28.011-96.658 145.36-156.98 269.87-154.82-125.19-22.988-217.66 12.74-282.01 98.963 26.82-114.26 23.375-234.96-21.857-331.19-39.623-84.3-141.16-120.21-222.51-94.713-96.809 30.343-138.12 119.6-133.87 199.75 4.174 78.703 79.231 154.82 156.64 159.68 75.861 4.76 142.13-45.1 160.59-113.53 14.571-54.035-16.451-100.5-65.874-121.12-49.489-14.98-94.409-0.911-114.14 35.214-21.499 39.36-13.964 79.231 23.678 98.355 26.662 13.546 46.849 2.154 52.213-24.589z"/>
 <path d="m455.12 1045.8c-22.404 165.48 109.89 320.1 286.57 359.83 145.7 32.763 322.77-20.733 457.78-139.64-178.71 120.03-341.98 154.09-469.51 115.36-124.07-37.681-261.07-170.4-274.83-335.54z"/>
 <path d="m1164.3 1332.4c110.9-47.356 229.5-142.07 253.78-272.4 19.066-102.32-59.094-220.59-165.14-263.5-79.604-32.206-157.45-0.405-203.19 43.714-60.671 58.524-70.436 142.76-26.714 210.88 37.557 58.508 88.147 89.992 153 78.522 71.59-8.511 109.92-50.743 118.59-123.04 4.906-57.249-24.308-94.59-80.546-116.16-40.203-13.002-80.141-1.619-98.76 33.19-16.37 30.605-4.879 58.164 16.595 84.189 9.288 11.256 28.738 14.166 41.69 8.5 7.612-4.574 10.61-10.404 4.857-18.619-7.556-11.489-12.143-31.166-2.024-43.714 14.019-17.383 44.335-9.393 59.499 13.357 27.95 39.196 35.227 77.564 10.119 109.69-33.021 42.249-96.736 57.07-136 39.261-60.774-27.568-80.951-105.64-77.713-148.54 5.099-67.563 46.446-118.79 105.64-144.09 69.283-29.615 135.7-18.371 193.07 35.619 67.844 73.77 87.94 143.51 65.57 209.66-42.006 106.78-130.21 188.86-232.33 263.5z"/>
</svg>
