<?xml version="1.0" standalone="no"?>
<!DOCTYPE svg PUBLIC "-//W3C//DTD SVG 20010904//EN"
 "http://www.w3.org/TR/2001/REC-SVG-20010904/DTD/svg10.dtd">
<svg version="1.0" xmlns="http://www.w3.org/2000/svg"
 width="432.000000pt" height="432.000000pt" viewBox="0 0 432.000000 432.000000"
 preserveAspectRatio="xMidYMid meet">

<g transform="translate(0.000000,432.000000) scale(0.100000,-0.100000)"
fill="#000000" stroke="none">
<path d="M0 2160 l0 -2160 1430 0 c1355 0 1430 1 1431 18 0 14 2 14 7 2 8 -17
52 -26 52 -11 0 6 -6 11 -14 11 -8 0 -23 10 -33 22 -19 24 -48 29 -72 14 -11
-7 -13 -5 -8 8 5 12 -1 25 -15 38 -16 14 -18 18 -6 14 9 -3 19 0 22 7 2 7 5 2
5 -10 1 -12 6 -25 13 -29 8 -5 9 -2 5 9 -4 11 -1 17 8 17 18 0 20 16 3 23 -10
4 -10 6 0 6 6 1 12 7 12 15 0 8 7 17 16 20 11 4 15 16 13 41 -2 19 2 40 9 47
11 11 13 10 10 -1 -2 -7 3 -16 10 -18 13 -5 17 29 5 41 -4 4 -8 15 -8 24 0 9
-6 16 -12 15 -7 -2 -13 2 -13 9 0 6 -3 8 -6 5 -4 -4 -1 -13 6 -22 16 -19 5
-49 -15 -41 -9 3 -15 0 -15 -9 0 -8 -4 -15 -10 -15 -5 0 -10 9 -10 19 0 10 -6
21 -14 24 -17 7 -24 44 -15 77 6 21 7 22 8 5 1 -14 8 -21 22 -22 17 -2 19 1
10 10 -17 17 -14 67 5 67 10 0 14 6 11 14 -4 10 1 14 15 13 17 -1 19 -6 15
-34 -3 -18 -2 -35 3 -38 5 -3 7 -12 3 -20 -3 -9 1 -15 10 -15 9 0 19 -9 22
-20 3 -11 11 -20 16 -20 12 0 12 3 -5 35 -11 21 -12 30 -3 40 10 10 13 7 17
-14 5 -21 7 -23 12 -9 4 10 18 18 30 18 23 1 23 1 3 15 -11 8 -26 20 -34 27
-11 9 -16 9 -19 0 -7 -22 -42 6 -40 33 2 24 18 36 18 14 0 -5 4 -7 10 -4 5 3
10 -1 10 -9 0 -9 4 -16 9 -16 5 0 3 23 -4 50 -8 30 -9 50 -4 50 6 0 7 4 4 10
-3 5 -11 10 -17 10 -6 0 -8 -3 -5 -6 3 -4 2 -15 -3 -25 -7 -12 -6 -19 3 -22 6
-2 9 -7 6 -10 -3 -4 -17 3 -32 15 l-26 21 24 19 c26 20 25 38 -4 72 -9 11 -11
16 -3 12 7 -4 24 -9 38 -11 22 -2 25 1 20 20 -3 12 -3 25 0 28 11 10 36 -23
30 -38 -3 -8 -1 -15 3 -15 14 0 19 23 11 45 -10 27 -70 34 -70 9 0 -15 -2 -15
-22 2 -21 19 -21 19 -16 -3 4 -13 2 -23 -3 -23 -8 0 -12 11 -11 30 0 3 -7 12
-16 20 -17 15 -17 18 5 -36 5 -13 1 -15 -18 -10 l-24 7 23 -17 c12 -9 22 -27
22 -41 0 -20 4 -23 20 -18 14 5 20 2 20 -9 0 -28 -34 -17 -58 19 -24 37 -51
46 -53 18 0 -11 -3 -13 -6 -5 -2 6 -14 12 -25 12 -20 0 -20 -1 -4 -19 10 -11
15 -24 12 -29 -3 -6 1 -13 10 -16 16 -6 11 -26 -7 -26 -6 0 -7 5 -4 10 3 6 0
13 -8 16 -14 5 -31 39 -28 57 1 4 -3 7 -9 7 -14 0 -28 -31 -23 -51 3 -11 1
-19 -5 -19 -11 0 -13 50 -3 65 4 6 13 29 20 53 6 23 16 42 20 42 5 0 12 15 16
33 5 22 9 26 12 14 5 -18 15 -22 26 -10 4 3 2 11 -3 18 -6 8 -5 21 3 38 15 32
23 34 32 6 4 -11 9 -18 12 -16 2 3 -1 15 -7 27 -7 13 -8 25 -3 29 4 3 19 23
33 43 14 21 31 40 38 43 7 3 10 0 7 -5 -3 -6 -1 -10 4 -10 6 0 11 8 11 18 0
11 8 26 18 35 20 18 57 23 47 7 -3 -5 -1 -10 4 -10 15 0 14 13 -1 29 -11 11
-10 14 0 18 6 3 10 9 6 14 -3 5 2 9 11 9 8 0 20 11 26 24 7 14 17 22 25 19 8
-3 14 1 14 11 0 13 6 15 26 10 19 -5 25 -4 20 4 -4 7 -2 20 3 29 6 10 11 13
11 8 0 -6 10 -16 23 -24 17 -10 19 -11 10 0 -19 19 -16 29 7 29 11 0 20 -5 20
-11 0 -5 14 -23 31 -39 21 -18 29 -33 24 -42 -5 -7 -5 -10 0 -6 4 4 14 0 22
-8 9 -8 18 -12 21 -9 3 3 -3 13 -14 24 -36 35 -74 81 -74 91 0 20 21 9 38 -20
9 -16 21 -30 25 -30 13 0 46 -41 63 -77 20 -45 18 -59 -6 -32 -10 13 -19 18
-20 12 0 -7 5 -13 11 -13 7 0 9 -9 6 -21 -4 -14 -1 -19 7 -16 7 3 18 -9 26
-27 7 -17 17 -34 22 -37 5 -3 13 -24 18 -45 8 -31 6 -41 -7 -51 -13 -10 -14
-15 -3 -28 7 -8 10 -15 6 -15 -3 0 -1 -12 5 -27 7 -20 6 -28 -3 -35 -7 -4 -8
-8 -2 -8 5 0 10 -16 11 -35 1 -23 -4 -35 -13 -35 -7 0 -11 6 -8 14 3 7 -2 16
-10 19 -20 8 -20 8 4 -47 11 -26 19 -66 18 -89 0 -23 0 -46 2 -52 1 -5 2 -21
1 -35 -2 -24 -2 -24 -16 -6 -8 11 -15 15 -15 9 0 -7 7 -19 16 -27 8 -9 13 -20
9 -25 -3 -5 -1 -12 5 -16 6 -4 5 -13 -2 -25 -9 -14 -9 -22 1 -34 8 -9 9 -16 3
-16 -16 0 -35 29 -28 45 15 41 -21 97 -50 76 -11 -8 -13 -52 -2 -45 4 3 8 -4
8 -16 0 -12 5 -18 10 -15 13 8 13 42 0 48 -6 3 -5 4 2 3 7 -1 14 -20 16 -42 2
-21 9 -42 15 -46 9 -5 9 -10 0 -19 -8 -8 -13 -6 -17 9 -5 14 -13 18 -26 15
-11 -3 -17 -9 -15 -14 3 -4 12 -6 21 -2 12 4 14 -1 9 -26 -6 -33 3 -38 35 -21
14 7 19 5 23 -9 2 -10 1 -25 -4 -32 -4 -8 -3 -19 4 -27 9 -11 7 -17 -6 -27 -9
-7 -17 -16 -17 -21 0 -5 -16 -9 -35 -10 -39 -1 -47 11 -14 19 20 5 20 7 6 21
-17 18 -32 21 -22 6 3 -5 -2 -21 -11 -35 -14 -22 -14 -25 -1 -25 13 0 14 -6 6
-32 -5 -17 -6 -34 -4 -37 3 -2 5 2 5 10 1 10 5 8 15 -5 15 -20 15 -20 16 0 0
18 1 17 16 -4 l15 -22 489 0 489 0 0 2160 0 2160 -2160 0 -2160 0 0 -2160z
m3337 1923 c-3 -10 -5 -2 -5 17 0 19 2 27 5 18 2 -10 2 -26 0 -35z m-1102
-347 c11 -4 31 -13 45 -21 14 -8 36 -19 50 -25 33 -14 63 -56 66 -94 9 -87 12
-103 27 -133 9 -17 24 -38 33 -47 14 -15 14 -19 -8 -54 -13 -20 -23 -43 -23
-49 0 -15 -10 -15 -45 -1 -37 15 -160 38 -200 38 -19 0 -54 -9 -77 -19 -35
-16 -44 -26 -54 -63 -7 -24 -18 -50 -25 -58 -42 -53 -64 -135 -39 -152 29 -21
50 -8 70 45 10 28 18 56 16 61 -1 5 5 6 13 3 10 -4 13 -1 10 8 -10 25 34 87
78 111 41 21 143 18 194 -6 49 -24 60 -43 37 -66 -13 -12 -18 -13 -21 -4 -4
10 -6 10 -12 0 -5 -8 -27 -13 -53 -13 -35 1 -46 -3 -50 -17 -3 -13 -22 -21
-74 -30 -59 -9 -74 -16 -92 -41 l-22 -29 26 0 c14 0 25 4 25 9 0 16 31 41 51
41 10 0 19 -5 19 -12 0 -19 31 -47 46 -41 16 6 15 -17 -1 -29 -19 -14 1 -16
48 -6 26 5 47 14 47 19 0 6 16 17 35 25 38 15 71 57 60 74 -4 7 2 6 15 -2 19
-11 23 -10 38 8 15 18 21 19 45 9 15 -6 24 -15 20 -20 -5 -4 7 -5 25 -2 23 5
31 3 26 -4 -4 -6 0 -16 7 -21 9 -6 10 -11 3 -14 -6 -3 -9 -25 -7 -54 2 -41 -1
-53 -22 -74 -13 -13 -21 -27 -18 -30 4 -3 1 -6 -6 -6 -7 0 -9 -4 -6 -10 3 -5
-1 -10 -10 -10 -11 0 -15 -5 -11 -15 3 -8 1 -15 -4 -15 -15 0 -12 -37 3 -43 6
-3 3 -6 -7 -6 -16 -1 -17 -4 -8 -13 15 -15 16 -32 2 -23 -13 8 -13 -8 0 -21
13 -13 1 -74 -14 -74 -17 0 -36 -52 -30 -77 4 -13 11 -20 16 -17 6 4 8 -2 3
-15 -4 -14 -2 -21 6 -21 7 0 9 -3 5 -7 -4 -5 -13 -8 -19 -8 -7 0 -12 -9 -12
-20 0 -26 -16 -37 -32 -23 -16 13 -21 9 -26 -19 -1 -11 -11 -33 -21 -48 -10
-15 -20 -35 -21 -44 -2 -9 -4 -18 -5 -21 -1 -3 -2 -9 0 -15 1 -5 -7 -15 -16
-22 -10 -7 -12 -13 -6 -13 21 0 13 -20 -12 -30 -14 -5 -35 -23 -47 -39 -12
-17 -26 -28 -31 -25 -4 3 -8 -1 -8 -8 0 -22 -67 -61 -95 -55 -15 2 -32 -1 -38
-8 -17 -16 -64 -29 -117 -30 -91 -2 -92 -3 -79 -26 8 -17 8 -23 -1 -29 -9 -6
-6 -10 9 -15 12 -3 18 -11 15 -17 -4 -6 -1 -14 6 -18 9 -6 9 -13 2 -26 -8 -14
-7 -24 6 -39 9 -11 11 -15 3 -9 -7 7 -21 9 -32 7 -19 -5 -19 -6 2 -23 l20 -19
-20 -11 c-16 -8 -21 -8 -22 2 0 7 -4 2 -10 -10 -12 -32 -7 -37 46 -52 43 -12
61 -30 30 -30 -8 0 -15 5 -15 10 0 15 -19 12 -37 -6 -14 -14 -14 -16 3 -28 10
-8 24 -12 31 -9 7 3 13 1 13 -5 0 -6 9 -8 20 -5 11 3 20 0 20 -6 0 -6 10 -11
23 -11 12 0 35 -9 50 -19 16 -10 37 -16 48 -14 11 3 19 0 19 -7 0 -7 7 -10 15
-7 8 4 16 3 19 -1 5 -9 119 -7 134 2 7 4 12 2 12 -4 0 -6 13 -5 37 5 20 8 37
14 39 13 1 -2 -9 -16 -22 -31 -13 -15 -24 -24 -24 -20 0 5 -12 9 -27 10 -16 1
-22 -1 -15 -4 6 -2 12 -12 12 -20 0 -12 3 -13 13 -4 8 6 17 8 21 4 3 -4 24 13
46 37 22 24 40 39 40 33 0 -6 -7 -19 -16 -27 -14 -15 -14 -16 3 -16 14 0 15
-2 4 -9 -10 -7 -11 -13 -2 -30 7 -11 8 -21 4 -21 -5 0 -14 -9 -20 -19 -12 -19
-11 -19 20 -6 28 12 34 11 50 -3 16 -15 17 -15 11 1 -4 12 -2 16 7 12 8 -3 15
-19 16 -37 3 -40 16 -53 40 -39 16 9 16 10 -6 11 -23 0 -24 1 -6 14 16 12 21
10 41 -13 13 -14 24 -20 24 -13 0 6 -4 12 -10 12 -5 0 -10 4 -10 10 0 5 7 7
15 4 8 -4 15 -2 15 3 0 15 49 7 70 -12 15 -13 17 -21 9 -31 -6 -7 -8 -18 -4
-24 10 -16 47 31 42 52 -3 10 -1 18 4 18 5 0 9 -5 9 -10 0 -6 3 -9 8 -9 4 1
18 1 31 0 20 -1 21 -3 11 -16 -7 -8 -15 -13 -19 -11 -4 3 -8 -4 -8 -15 -2 -20
-2 -20 30 0 18 12 31 25 30 30 -1 5 4 15 12 21 12 10 16 9 21 -3 4 -10 16 -14
40 -12 26 2 34 -1 30 -11 -3 -8 -1 -14 4 -14 6 0 10 7 10 16 0 14 1 14 16 0 8
-9 20 -17 25 -17 5 -1 14 -3 19 -4 6 -1 13 -3 17 -4 4 0 -2 -7 -13 -15 -11 -8
-15 -18 -10 -23 5 -4 11 -2 13 5 4 10 8 10 19 1 11 -9 11 -15 3 -25 -8 -10 -3
-9 20 2 17 9 39 14 49 12 13 -3 9 -9 -18 -26 -21 -13 -28 -22 -18 -22 9 0 23
7 32 15 14 14 36 20 36 10 0 -9 -36 -41 -53 -48 -9 -3 -17 -11 -17 -17 0 -7 6
-8 19 0 23 12 34 1 21 -20 -7 -12 -15 -13 -40 -3 -17 6 -32 7 -36 2 -3 -5 0
-9 6 -9 6 0 9 -4 5 -10 -6 -10 29 -50 45 -50 18 0 10 22 -10 27 -34 9 -22 19
23 20 57 0 108 12 101 24 -3 5 -9 7 -14 4 -5 -3 -11 -1 -15 5 -10 16 -38 12
-31 -5 3 -8 1 -15 -4 -15 -13 0 -13 27 0 35 6 4 8 11 5 16 -4 5 6 14 21 19 32
13 58 -4 50 -32 -3 -13 3 -22 18 -28 13 -4 23 -15 23 -24 0 -20 -16 -21 -23
-1 -5 11 -10 12 -27 2 -12 -7 -24 -14 -27 -17 -10 -10 -33 -10 -45 0 -9 8 -14
6 -18 -4 -4 -11 -1 -13 10 -9 13 5 14 3 3 -16 -12 -23 -11 -23 32 3 30 18 48
22 58 16 13 -8 12 -10 -2 -10 -23 0 -23 -13 -1 -31 14 -12 16 -12 11 1 -3 9 6
22 24 33 16 9 26 22 23 27 -10 16 12 12 29 -5 8 -8 18 -15 22 -15 11 0 33 -34
34 -52 0 -14 -7 -16 -37 -11 -53 7 -77 6 -81 -7 -2 -5 -19 -10 -38 -10 -19 0
-34 -5 -34 -10 0 -6 -11 -8 -25 -4 -15 4 -25 2 -25 -5 0 -6 -5 -11 -11 -11 -6
0 -9 7 -6 15 4 8 2 17 -2 20 -10 6 -21 -18 -21 -47 0 -17 -2 -18 -15 -8 -13
11 -14 10 -9 -4 3 -9 1 -16 -6 -16 -6 0 -8 -4 -5 -10 3 -5 -14 -15 -39 -22
-32 -8 -42 -15 -36 -23 7 -8 3 -18 -10 -30 -11 -10 -20 -22 -20 -28 0 -5 -11
-18 -25 -29 -14 -11 -25 -28 -25 -39 0 -10 -5 -19 -11 -19 -6 0 -17 -7 -25
-15 -20 -19 -35 -19 -28 0 4 10 0 15 -15 15 l-22 0 21 -22 c24 -26 25 -32 3
-49 -13 -11 -17 -11 -20 -1 -6 15 -33 16 -33 1 0 -7 -8 -18 -17 -25 -22 -17
-2 -19 30 -3 21 10 21 10 3 -5 -11 -9 -16 -16 -10 -16 5 0 2 -4 -6 -10 -9 -6
-17 -5 -21 2 -9 15 -32 -1 -25 -18 3 -8 1 -14 -5 -14 -6 0 -7 -4 -4 -10 3 -5
1 -10 -5 -10 -6 0 -4 -7 5 -16 13 -14 14 -19 4 -25 -8 -5 -17 -3 -21 4 -5 8
-9 6 -14 -6 -3 -9 -1 -24 6 -32 9 -11 9 -15 1 -15 -7 0 -9 -5 -5 -11 4 -8 0
-9 -15 -4 -12 4 -21 2 -21 -4 0 -6 5 -11 12 -11 9 0 9 -3 0 -12 -7 -7 -12 -28
-12 -48 0 -29 -4 -36 -20 -36 -24 0 -25 3 -3 24 16 16 14 17 -26 20 -33 2 -44
8 -48 23 -3 10 -10 19 -17 19 -7 0 -7 3 -1 8 6 4 11 14 11 22 1 8 3 21 5 29 2
7 -2 16 -9 18 -8 3 -10 -1 -6 -11 5 -12 2 -15 -10 -10 -9 3 -16 1 -16 -6 0 -6
5 -8 10 -5 6 3 10 -1 10 -9 0 -18 -42 -34 -48 -17 -2 6 -10 18 -18 25 -8 8
-11 21 -8 30 3 8 1 23 -5 33 -9 16 -11 15 -12 -7 -1 -14 -1 -31 0 -37 1 -8 -5
-10 -15 -6 -14 5 -15 3 -7 -12 7 -11 7 -23 2 -29 -48 -57 -49 -60 -37 -67 10
-7 10 -11 0 -21 -10 -10 -14 -8 -18 10 -7 25 -15 27 -32 10 -9 -9 -11 -4 -9
22 2 23 8 35 17 35 9 0 14 -7 12 -17 -4 -22 11 -23 28 -3 10 13 10 19 -5 35
-10 11 -22 17 -26 14 -5 -3 -9 -1 -9 5 0 6 10 15 21 22 17 9 19 13 8 20 -12 7
-11 14 4 40 14 25 15 34 5 40 -14 9 -28 3 -28 -12 0 -6 5 -7 10 -4 12 7 13 -5
2 -22 -4 -7 -13 -9 -21 -4 -10 7 -11 16 -4 37 7 22 16 29 39 30 16 1 32 2 37
3 10 2 9 29 -3 36 -5 3 -7 0 -4 -8 3 -9 -3 -17 -17 -20 -28 -7 -37 -1 -21 15
7 7 12 17 12 22 0 6 -11 -2 -25 -17 -27 -29 -58 -37 -49 -13 3 8 12 12 19 10
9 -4 12 0 9 14 -4 11 5 31 21 50 15 18 25 32 22 32 -11 0 -77 -64 -77 -74 0
-6 -12 -16 -26 -23 -23 -11 -24 -10 -12 5 7 9 18 20 23 24 6 4 6 8 1 8 -5 0 1
11 14 25 12 13 28 22 33 18 6 -4 8 0 4 10 -5 14 0 17 24 17 29 0 29 1 14 17
-16 16 -16 17 1 30 21 16 41 17 46 3 2 -6 18 5 37 23 20 22 29 37 22 41 -6 4
-11 0 -11 -8 0 -9 -6 -16 -14 -16 -8 0 -17 -8 -19 -18 -4 -14 -6 -14 -12 6 -9
28 -14 28 -41 -4 -13 -14 -26 -26 -31 -27 -4 -1 -7 -6 -5 -11 2 -5 -4 -6 -13
-3 -9 4 -15 1 -15 -8 0 -8 -4 -15 -9 -15 -5 0 -14 -13 -19 -30 -12 -33 -29
-32 -50 0 -10 16 -10 25 0 43 7 12 11 25 10 29 -1 4 4 5 12 2 7 -3 16 2 19 10
4 9 13 16 22 16 8 0 15 5 15 10 0 6 -4 10 -9 10 -6 0 -13 -4 -16 -10 -11 -18
-23 -11 -18 10 3 12 0 20 -6 20 -7 0 -11 -6 -10 -12 3 -25 -1 -36 -15 -41 -11
-4 -11 1 0 31 17 49 17 69 -1 76 -8 3 -15 1 -15 -3 0 -5 6 -11 12 -13 9 -3 8
-9 -4 -21 -18 -19 -33 -23 -23 -7 3 6 1 10 -4 10 -6 0 -11 -9 -11 -20 0 -14 7
-20 22 -20 17 0 19 -3 10 -12 -16 -16 -42 9 -45 40 -1 12 -5 22 -10 22 -4 0
-6 4 -2 9 12 21 -34 22 -54 2 -17 -17 -18 -21 -6 -21 9 0 18 7 21 15 11 26 20
16 20 -21 0 -21 -2 -32 -4 -25 -6 17 -22 13 -22 -6 0 -13 -3 -14 -12 -5 -7 7
-20 12 -30 12 -10 0 -18 4 -18 9 0 5 9 7 21 4 19 -5 20 -4 8 16 -16 24 -25 27
-32 9 -2 -7 -4 0 -4 15 -1 41 -20 57 -32 26 -5 -13 -10 -18 -10 -11 -1 6 -8
12 -16 12 -8 0 -15 -6 -15 -12 0 -9 -4 -8 -10 2 -8 12 -10 10 -10 -8 0 -15 -5
-22 -12 -19 -7 2 -12 10 -10 16 1 6 -2 11 -8 11 -5 0 -10 -4 -10 -10 0 -5 -7
-6 -17 -3 -11 4 -14 3 -9 -5 4 -7 -5 -23 -21 -38 -15 -14 -23 -23 -17 -20 22
11 23 -22 2 -46 -11 -13 -28 -34 -39 -46 -10 -13 -23 -21 -29 -17 -12 7 25 45
43 45 6 0 7 3 4 7 -4 3 -2 12 5 20 16 19 7 24 -28 14 -16 -5 -21 -10 -11 -10
21 -1 22 -8 2 -28 -9 -8 -22 -13 -29 -10 -8 3 -22 -3 -31 -13 -15 -16 -15 -22
-5 -35 8 -10 9 -15 1 -15 -6 0 -11 -7 -11 -15 0 -8 -9 -15 -20 -15 -20 0 -20
1 -4 26 11 17 14 28 7 32 -6 4 -10 22 -9 40 1 20 -4 32 -12 32 -9 0 -11 -10
-6 -35 5 -26 3 -35 -7 -35 -10 -1 -9 -5 3 -14 10 -7 18 -17 18 -21 0 -5 -11 2
-24 14 -14 13 -30 20 -36 16 -7 -4 -16 -2 -20 5 -4 7 -13 9 -19 5 -16 -9 18
-35 36 -28 16 6 16 -2 2 -28 -5 -11 -14 -17 -19 -14 -12 7 -23 -12 -15 -26 5
-6 13 -3 22 10 8 12 18 21 23 21 13 0 -1 -32 -19 -47 -9 -7 -12 -13 -7 -13 6
0 1 -7 -10 -15 -18 -13 -18 -14 5 -8 l25 6 -22 -23 c-27 -29 -27 -38 -4 -57 9
-8 11 -11 4 -8 -9 5 -15 -1 -19 -14 -3 -12 -12 -21 -20 -21 -13 0 -13 3 -3 15
12 14 21 73 13 87 -2 4 -15 -4 -30 -18 -14 -13 -23 -28 -18 -32 4 -4 10 -1 12
6 3 6 9 10 14 6 11 -7 -21 -64 -36 -64 -6 0 -20 7 -31 15 -26 18 -40 7 -16
-12 9 -8 11 -12 5 -8 -7 3 -13 1 -13 -6 0 -6 8 -9 20 -6 17 4 18 2 9 -15 -6
-10 -17 -22 -25 -25 -9 -3 -14 -13 -11 -24 5 -19 -4 -25 -16 -12 -4 3 0 17 9
30 12 19 13 27 3 39 -6 8 -8 14 -3 14 5 0 1 5 -9 11 -9 6 -15 14 -12 19 3 5 1
11 -4 14 -5 3 -11 -3 -14 -14 -3 -11 -1 -20 5 -20 6 0 8 -7 5 -15 -4 -8 -2
-17 4 -21 7 -4 6 -10 0 -18 -6 -7 -8 -16 -4 -19 3 -4 -2 -9 -11 -13 -9 -3 -16
-13 -16 -21 0 -8 -8 -13 -17 -12 -33 3 -43 -1 -43 -16 0 -8 -7 -15 -15 -15 -8
0 -15 -7 -15 -17 0 -14 -2 -15 -17 -1 -10 9 -26 14 -35 13 -32 -6 -29 27 6 61
18 18 31 36 28 39 -3 3 3 8 15 11 15 4 20 11 16 22 -4 13 -2 13 9 -2 9 -12 17
-15 21 -9 4 6 0 14 -9 17 -14 5 -12 11 11 42 15 19 25 38 22 41 -9 8 -27 -7
-27 -23 0 -17 -16 -19 -24 -1 -3 6 -4 -1 -2 -16 2 -18 -3 -32 -14 -40 -9 -7
-22 -21 -28 -32 -11 -18 -12 -18 -10 9 2 18 -2 31 -11 34 -8 3 -11 0 -7 -7 9
-14 -6 -15 -20 -1 -7 7 -11 6 -11 -4 0 -8 4 -13 8 -10 4 2 11 -1 15 -7 11 -18
13 -59 3 -59 -5 0 -8 10 -6 22 2 24 -17 28 -58 12 -18 -7 -19 -6 -5 11 14 16
13 17 -8 11 -17 -6 -21 -4 -16 8 3 9 10 16 14 16 4 0 13 13 20 30 7 16 19 30
26 30 8 0 14 5 14 10 0 15 -30 12 -31 -2 0 -10 -2 -10 -6 0 -5 13 -23 7 -23
-9 0 -6 5 -7 10 -4 16 10 12 -7 -7 -27 -21 -23 -37 -23 -28 -1 5 15 3 14 -13
-2 -17 -18 -17 -21 -3 -32 9 -7 12 -13 7 -13 -5 0 1 -9 13 -20 17 -14 31 -17
54 -13 30 6 31 6 14 -11 -9 -10 -17 -22 -17 -27 0 -5 -9 -9 -19 -9 -11 0 -21
-6 -24 -13 -2 -6 -3 -4 -2 6 2 9 0 17 -5 17 -15 0 -30 -28 -24 -44 3 -9 1 -16
-4 -16 -6 0 -27 -17 -47 -37 -28 -30 -35 -33 -33 -18 4 25 48 76 59 69 5 -3 6
2 3 11 -5 12 -9 13 -20 4 -24 -19 -27 -2 -5 20 26 26 27 41 2 34 -12 -3 -17
-11 -14 -19 3 -9 -1 -14 -12 -14 -10 0 -14 5 -9 13 3 6 -7 -1 -23 -18 -30 -31
-36 -48 -8 -25 25 21 17 -2 -12 -32 -14 -15 -24 -30 -21 -34 3 -3 15 5 27 17
17 18 21 20 21 6 0 -8 -5 -19 -10 -22 -6 -4 -7 -12 -3 -18 4 -7 6 -20 5 -30
-2 -9 0 -17 4 -17 10 0 84 82 84 92 0 4 8 8 18 7 12 0 13 -2 3 -6 -10 -4 -10
-7 -1 -13 12 -8 50 22 50 39 0 10 29 36 34 30 3 -2 7 -16 11 -31 5 -21 3 -29
-10 -34 -9 -4 -20 -2 -24 5 -6 9 -11 8 -21 -4 -7 -8 -9 -15 -4 -15 5 0 2 -6
-7 -13 -8 -7 -18 -20 -22 -30 -4 -10 -11 -15 -17 -12 -5 3 -7 0 -4 -8 3 -9 14
-13 27 -10 20 4 20 3 4 -7 -10 -7 -21 -9 -24 -6 -12 12 -41 -25 -36 -45 3 -10
1 -19 -4 -19 -12 0 -11 43 1 52 7 5 7 8 -1 8 -7 0 -13 5 -13 11 0 6 7 9 15 5
8 -3 14 -2 14 2 -3 18 2 32 17 47 9 9 14 18 12 21 -7 6 -54 -38 -61 -58 -4
-10 -16 -18 -27 -18 -11 0 -20 -5 -20 -11 0 -5 6 -7 13 -4 6 4 3 -1 -7 -9 -11
-9 -26 -16 -34 -16 -12 0 -11 4 3 20 10 11 13 20 7 20 -7 0 -24 -13 -39 -30
-27 -31 -43 -38 -43 -20 0 6 7 10 16 10 8 0 12 5 9 10 -4 6 -1 18 7 27 11 15
11 16 -4 10 -24 -9 -23 2 5 31 l22 24 -22 -6 c-14 -5 -23 -3 -23 3 0 6 6 11
13 11 8 0 19 11 25 25 14 30 -2 34 -18 5 -6 -11 -15 -18 -21 -15 -13 9 0 57
20 74 14 11 13 12 -9 7 -23 -7 -24 -6 -7 8 12 9 14 16 8 21 -6 3 -11 11 -11
17 0 7 6 6 15 -2 16 -13 18 -10 9 14 -3 8 -11 13 -18 10 -7 -3 -12 6 -14 21
-1 14 3 25 9 25 5 0 7 5 3 12 -12 19 -14 98 -3 98 6 0 7 5 2 13 -4 6 -8 50 -8
97 -1 64 3 88 15 98 8 8 10 11 3 8 -15 -8 -22 33 -19 114 1 51 5 64 16 62 13
-2 13 -1 0 10 -19 16 -21 91 -2 83 10 -4 10 -1 0 14 -11 16 -13 170 -11 852 2
458 4 834 6 835 3 3 455 59 557 69 90 9 97 12 103 43 7 33 53 62 96 59 17 -1
31 -5 31 -9 0 -3 11 -1 25 5 30 14 33 37 5 44 -11 3 -20 9 -20 14 0 20 -75 -6
-112 -39 -17 -14 -18 -12 -18 34 0 136 40 258 110 336 58 66 167 139 201 136
24 -2 163 29 187 42 12 6 63 -4 117 -24z m1145 -1346 c0 -585 -4 -931 -10
-935 -5 -3 -19 4 -30 15 -11 11 -25 18 -30 15 -6 -4 -13 1 -16 9 -3 9 -12 16
-19 16 -18 0 -125 99 -125 115 0 7 -20 37 -45 66 -25 29 -45 59 -45 66 0 18
-22 56 -37 66 -7 4 -13 14 -13 22 0 8 -8 29 -19 47 -11 21 -16 46 -14 64 3 20
-1 36 -11 47 -9 8 -16 20 -16 26 0 6 -5 11 -10 11 -12 0 -10 69 2 76 4 3 8 -1
8 -8 1 -7 7 5 15 27 13 35 33 187 27 208 -1 4 5 7 13 7 17 0 20 16 5 25 -16
10 -12 25 5 19 10 -4 16 0 16 12 6 76 11 112 27 206 10 59 15 113 11 119 -4 7
-3 23 1 35 6 15 5 24 -2 26 -8 3 -7 40 4 132 12 106 12 129 1 133 -7 3 -13 11
-13 19 0 8 -7 14 -15 14 -20 0 -19 30 3 47 9 8 12 12 5 8 -9 -4 -11 6 -7 37 3
23 7 45 10 47 2 2 -1 10 -7 17 -24 29 -9 33 226 67 50 8 93 12 98 10 4 -2 7
-422 7 -933z m-551 730 c-46 -46 -53 -49 -43 -17 10 34 34 57 60 57 20 0 19
-3 -17 -40z m111 -97 c0 -45 -9 -83 -20 -83 -9 0 -12 77 -4 103 9 30 24 18 24
-20z m-60 -5 c29 -49 27 -128 -4 -165 -23 -27 -50 -27 -29 -1 29 36 22 138
-11 160 -6 4 -5 12 3 22 18 21 18 21 41 -16z m-65 -154 c-8 -6 -12 -14 -8 -17
3 -4 1 -7 -6 -7 -9 0 -9 -5 0 -21 13 -24 -1 -39 -36 -38 -19 0 -18 1 3 11 23
11 30 34 12 40 -6 2 -3 18 8 40 15 33 18 35 30 20 10 -14 10 -19 -3 -28z m79
-66 c-29 -71 -49 -92 -87 -86 -32 5 -34 34 -2 42 17 4 25 12 22 20 -3 8 2 16
13 19 11 3 32 25 47 50 38 61 41 40 7 -45z m-104 -117 c0 -9 -10 -4 -26 12
-17 18 -24 32 -20 44 6 15 10 13 26 -12 11 -17 20 -36 20 -44z m250 -121 c0
-5 -5 -10 -11 -10 -5 0 -7 5 -4 10 3 6 8 10 11 10 2 0 4 -4 4 -10z m-530 -35
c0 -5 -5 -3 -10 5 -5 8 -10 20 -10 25 0 6 5 3 10 -5 5 -8 10 -19 10 -25z m512
-50 c-2 -19 -6 -35 -8 -35 -2 0 -4 16 -4 35 0 19 4 35 8 35 4 0 6 -16 4 -35z
m-49 -150 c-3 -9 -8 -14 -10 -11 -3 3 -2 9 2 15 9 16 15 13 8 -4z m-205 -297
c20 -20 14 -28 -20 -27 -25 1 -27 3 -10 6 19 4 21 7 11 19 -14 17 2 19 19 2z
m-775 -35 c-3 -7 0 -13 7 -13 6 0 10 -5 8 -11 -4 -12 -17 -13 -19 -1 -1 4 -5
14 -9 23 -6 11 -5 16 5 16 7 0 11 -6 8 -14z m728 -11 c-7 -2 -18 1 -23 6 -8 8
-4 9 13 5 13 -4 18 -8 10 -11z m-688 -12 c-3 -12 -8 -19 -11 -16 -5 6 5 36 12
36 2 0 2 -9 -1 -20z m157 16 c0 -3 -4 -8 -10 -11 -5 -3 -10 -1 -10 4 0 6 5 11
10 11 6 0 10 -2 10 -4z m500 -21 c0 -8 -6 -12 -14 -9 -8 3 -12 12 -9 20 6 17
23 9 23 -11z m-625 -4 c-3 -6 -11 -8 -17 -5 -6 4 -5 9 3 15 16 10 23 4 14 -10z
m565 -38 c0 -2 -9 1 -20 7 -11 6 -20 18 -20 27 0 12 4 11 20 -7 11 -13 20 -25
20 -27z m-152 2 c-3 -3 -9 2 -12 12 -6 14 -5 15 5 6 7 -7 10 -15 7 -18z m-478
-22 c0 -2 -3 -2 -7 -1 -5 1 -17 -3 -29 -9 -21 -12 -64 -7 -64 7 0 13 36 18 55
8 14 -9 16 -7 10 12 -7 21 -6 21 14 3 12 -9 21 -19 21 -20z m439 4 c0 -12 -4
-31 -9 -42 -6 -14 -8 -7 -7 26 1 26 5 45 10 42 4 -2 7 -14 6 -26z m130 12
c-16 -10 -23 -4 -14 10 3 6 11 8 17 5 6 -4 5 -9 -3 -15z m101 17 c0 -2 -6 -9
-13 -15 -10 -8 -14 -7 -14 4 0 8 6 15 14 15 7 0 13 -2 13 -4z m207 -18 c-3 -8
-6 -5 -6 6 -1 11 2 17 5 13 3 -3 4 -12 1 -19z m-490 -30 c-3 -8 -6 -5 -6 6 -1
11 2 17 5 13 3 -3 4 -12 1 -19z m-357 -12 c9 -12 8 -15 -9 -13 -21 1 -26 8
-14 20 9 9 9 9 23 -7z m54 -23 c8 3 18 2 21 -3 4 -6 -3 -10 -14 -10 -11 0 -23
-9 -27 -22 -6 -19 -7 -19 -16 -5 -5 10 -18 17 -28 17 -11 0 -20 4 -20 10 0 5
13 7 30 3 26 -5 30 -3 24 13 -4 15 -4 16 4 5 6 -8 17 -11 26 -8z m66 3 c0 -2
-7 -7 -16 -10 -8 -3 -12 -2 -9 4 6 10 25 14 25 6z m750 -22 c0 -8 -4 -12 -10
-9 -5 3 -10 10 -10 16 0 5 5 9 10 9 6 0 10 -7 10 -16z m-144 -8 c17 -18 18
-26 1 -26 -7 0 -18 9 -25 20 -14 24 2 28 24 6z m-653 -15 c-4 -16 6 -14 24 5
13 12 18 13 24 3 4 -7 5 -17 3 -21 -7 -12 -52 -10 -59 2 -4 6 -11 8 -16 5 -5
-3 -6 1 -3 10 7 17 30 14 27 -4z m312 0 c-3 -6 -11 -8 -17 -5 -6 4 -5 9 3 15
16 10 23 4 14 -10z m-180 -10 c-8 -14 -25 -14 -25 0 0 5 5 7 10 4 6 -3 10 -1
10 6 0 7 3 10 6 6 3 -3 3 -10 -1 -16z m132 4 c0 -8 -4 -12 -9 -9 -4 3 -8 9 -8
15 0 5 4 9 8 9 5 0 9 -7 9 -15z m254 -12 c-12 -20 -14 -14 -5 12 4 9 9 14 11
11 3 -2 0 -13 -6 -23z m105 10 c10 -10 19 -24 19 -30 0 -7 5 -13 10 -13 6 0
10 4 10 9 0 5 3 13 8 17 4 4 7 -6 7 -23 0 -26 -3 -30 -20 -26 -14 4 -20 0 -20
-10 0 -10 -7 -15 -20 -12 -11 2 -22 0 -25 -6 -8 -12 -25 -12 -25 1 0 6 7 10
15 10 8 0 15 5 15 10 0 7 -6 7 -20 0 -24 -13 -25 -18 -2 -43 19 -22 1 -16 -30
11 -9 7 -22 11 -27 7 -6 -3 -11 -1 -11 4 0 6 4 11 9 11 5 0 11 7 15 15 3 8 0
14 -6 12 -6 -1 -12 3 -14 8 -2 6 4 11 15 11 11 0 19 -5 18 -10 -1 -6 8 -12 21
-14 15 -2 22 2 22 12 0 9 -7 16 -15 16 -8 0 -15 7 -15 15 0 25 29 17 36 -10 7
-27 18 -32 30 -14 4 7 -1 16 -10 21 -9 5 -16 16 -16 23 0 19 3 19 26 -2z
m-536 -3 c0 -5 -4 -10 -10 -10 -5 0 -10 5 -10 10 0 6 5 10 10 10 6 0 10 -4 10
-10z m100 -11 c0 -4 -7 -6 -15 -3 -8 4 -15 10 -15 15 0 4 7 6 15 3 8 -4 15
-10 15 -15z m540 -13 c12 -19 12 -20 -3 -7 -15 11 -17 11 -17 -2 0 -9 -4 -18
-9 -22 -5 -3 -9 7 -9 23 1 34 20 37 38 8z m110 -6 c0 -5 -2 -10 -4 -10 -3 0
-8 5 -11 10 -3 6 -1 10 4 10 6 0 11 -4 11 -10z m-415 -66 c-10 -8 -14 -14 -9
-14 23 0 47 28 42 47 -7 25 20 25 36 0 15 -23 -9 -45 -57 -52 -33 -6 -37 -4
-37 15 0 19 -2 20 -15 6 -16 -16 -20 -31 -6 -22 5 3 11 -3 14 -13 4 -17 2 -18
-19 -9 -18 9 -21 15 -14 29 6 10 7 26 4 36 -5 15 -4 15 5 3 9 -13 11 -13 11 2
0 24 33 27 49 4 13 -17 12 -21 -4 -32z m415 -4 c0 -5 -4 -10 -10 -10 -5 0 -10
5 -10 10 0 6 5 10 10 10 6 0 10 -4 10 -10z m-4 -34 c9 -10 10 -17 4 -21 -6 -4
-7 -11 -4 -17 5 -7 2 -8 -5 -4 -7 5 -10 14 -7 22 3 8 -1 14 -9 14 -8 0 -15 5
-15 10 0 15 19 12 36 -4z m-333 -5 c4 0 7 -8 7 -18 0 -15 -1 -15 -18 0 -10 10
-21 14 -25 11 -3 -3 -14 -1 -24 4 -14 8 -11 10 17 8 19 -2 38 -4 43 -5z m385
-18 c-1 -10 1 -23 5 -30 5 -7 1 -9 -12 -6 -17 4 -18 9 -9 29 13 28 20 31 16 7z
m-288 -17 c0 -11 -19 -15 -25 -6 -3 5 1 10 9 10 9 0 16 -2 16 -4z m380 -116
c0 -5 -7 -10 -16 -10 -8 0 -12 5 -9 10 3 6 10 10 16 10 5 0 9 -4 9 -10z m190
-360 c-7 -4 4 -26 30 -58 42 -54 59 -67 40 -32 -16 30 3 24 21 -6 13 -21 14
-36 7 -67 -6 -27 -5 -42 2 -47 6 -4 8 -15 4 -25 -6 -16 -9 -15 -25 6 -10 13
-19 37 -19 53 0 28 1 29 14 11 13 -19 14 -18 13 6 -1 17 -7 25 -14 22 -7 -3
-13 -1 -13 5 0 6 -18 30 -40 53 -22 24 -40 47 -40 52 0 5 -7 15 -15 24 -9 8
-13 18 -9 22 4 3 9 0 11 -6 3 -7 9 -13 14 -13 4 0 5 8 2 18 -6 15 -5 15 11 3
11 -10 13 -16 6 -21z m100 26 c0 -3 -4 -8 -10 -11 -5 -3 -10 -1 -10 4 0 6 5
11 10 11 6 0 10 -2 10 -4z m-1330 -48 c0 -9 -44 -11 -53 -2 -3 3 -1 14 6 25
10 17 13 17 29 2 10 -9 18 -20 18 -25z m1264 -4 c5 -14 4 -15 -9 -4 -17 14
-19 20 -6 20 5 0 12 -7 15 -16z m-1384 -8 c0 -3 -4 -8 -10 -11 -5 -3 -10 -1
-10 4 0 6 5 11 10 11 6 0 10 -2 10 -4z m140 -12 c0 -8 -5 -12 -10 -9 -6 4 -8
11 -5 16 9 14 15 11 15 -7z m-110 -14 c-8 -5 -22 -9 -30 -9 -10 0 -8 3 5 9 27
12 43 12 25 0z m70 -14 c0 -2 -7 -7 -16 -10 -8 -3 -12 -2 -9 4 6 10 25 14 25
6z m-103 -31 c-1 -1 -15 -9 -31 -19 -29 -19 -28 -9 2 27 12 13 17 14 23 5 4
-7 7 -13 6 -13z m33 10 c-14 -16 -25 -21 -16 -6 4 5 0 12 -6 14 -7 3 -2 6 11
6 20 1 21 -1 11 -14z m255 -5 c3 -5 2 -10 -4 -10 -5 0 -13 5 -16 10 -3 6 -2
10 4 10 5 0 13 -4 16 -10z m-75 -10 c0 -5 -7 -10 -16 -10 -8 0 -12 5 -9 10 3
6 10 10 16 10 5 0 9 -4 9 -10z m-149 -23 c-10 -9 -11 -8 -5 6 3 10 9 15 12 12
3 -3 0 -11 -7 -18z m189 13 c0 -5 -9 -19 -20 -30 -11 -11 -20 -16 -20 -11 0 5
7 16 15 24 8 8 11 17 8 21 -4 3 -1 6 5 6 7 0 12 -4 12 -10z m50 -6 c0 -12 -14
-34 -22 -34 -6 0 -17 -8 -24 -17 -7 -10 -15 -15 -18 -12 -8 8 36 66 51 66 7 0
13 -1 13 -3z m-176 -39 c-4 -8 -10 -13 -15 -10 -4 3 -6 12 -3 20 4 8 10 13 15
10 4 -3 6 -12 3 -20z m-179 5 c3 -5 -1 -10 -10 -10 -9 0 -13 5 -10 10 3 6 8
10 10 10 2 0 7 -4 10 -10z m-79 -8 c15 -10 14 -41 -2 -35 -7 2 -10 11 -8 18 3
7 -3 15 -13 18 -12 3 -13 5 -3 6 8 0 20 -3 26 -7z m204 -2 c0 -5 -7 -10 -16
-10 -8 0 -12 5 -9 10 3 6 10 10 16 10 5 0 9 -4 9 -10z m87 -22 c-3 -8 -6 -5
-6 6 -1 11 2 17 5 13 3 -3 4 -12 1 -19z m-236 -28 c14 0 11 -20 -8 -38 -13
-13 -15 -13 -11 -2 3 8 1 26 -4 38 -4 13 -5 29 -1 35 5 8 9 4 11 -10 2 -13 8
-23 13 -23z m169 20 c0 -5 -4 -10 -10 -10 -5 0 -10 5 -10 10 0 6 5 10 10 10 6
0 10 -4 10 -10z m89 -21 c-13 -26 -23 -18 -14 10 3 12 11 19 16 16 5 -4 5 -14
-2 -26z m106 11 c-13 -14 -15 -23 -7 -32 8 -10 4 -13 -15 -15 -15 0 -22 2 -17
5 5 4 15 19 21 35 7 15 18 27 24 27 7 0 5 -8 -6 -20z m-507 -15 c6 -14 10 -25
7 -25 -7 0 -35 32 -35 41 0 18 17 9 28 -16z m82 5 c0 -5 6 -7 13 -4 8 3 14 -2
14 -11 0 -21 -13 -19 -37 5 -16 16 -17 20 -5 20 8 0 15 -4 15 -10z m363 -5
c-3 -9 -8 -14 -10 -11 -3 3 -2 9 2 15 9 16 15 13 8 -4z m127 -6 c0 -5 -7 -9
-15 -9 -7 0 -19 -8 -24 -17 -13 -23 -14 -12 -1 21 6 17 14 24 25 20 8 -3 15
-10 15 -15z m-375 -19 c3 -5 -1 -10 -9 -10 -9 0 -16 5 -16 10 0 6 4 10 9 10 6
0 13 -4 16 -10z m130 0 c3 -5 1 -10 -4 -10 -6 0 -11 5 -11 10 0 6 2 10 4 10 3
0 8 -4 11 -10z m-290 -10 c-3 -5 -11 -10 -16 -10 -6 0 -7 5 -4 10 3 6 11 10
16 10 6 0 7 -4 4 -10z m190 -10 c-3 -5 -11 -10 -16 -10 -6 0 -7 5 -4 10 3 6
11 10 16 10 6 0 7 -4 4 -10z m-255 -10 c0 -5 -4 -10 -10 -10 -5 0 -10 5 -10
10 0 6 5 10 10 10 6 0 10 -4 10 -10z m340 0 c0 -5 -5 -10 -11 -10 -5 0 -7 5
-4 10 3 6 8 10 11 10 2 0 4 -4 4 -10z m-42 -25 c21 -19 23 -25 10 -25 -9 0
-20 5 -24 11 -4 8 -9 7 -15 -2 -11 -19 -22 -4 -14 20 8 26 10 26 43 -4z m207
16 c3 -5 1 -12 -5 -16 -5 -3 -10 1 -10 9 0 18 6 21 15 7z m29 -32 c-7 -8 -14
-21 -14 -27 0 -7 -4 -12 -10 -12 -5 0 -6 -7 -3 -17 4 -10 2 -14 -5 -10 -6 4
-13 -1 -15 -10 -3 -12 -5 -8 -6 9 -1 16 6 31 17 37 9 6 13 11 9 11 -5 0 0 13
9 30 12 20 20 26 26 18 4 -7 0 -20 -8 -29z m-468 2 c-9 -10 -16 -24 -16 -31 0
-7 -3 -10 -6 -7 -10 10 17 68 28 61 5 -3 3 -13 -6 -23z m529 19 c-3 -5 -10
-10 -16 -10 -5 0 -9 5 -9 10 0 6 7 10 16 10 8 0 12 -4 9 -10z m-578 -20 c-1
-11 -7 -20 -14 -20 -16 0 -17 12 -1 28 16 16 17 15 15 -8z m413 12 c0 -5 -7
-9 -15 -9 -8 0 -15 4 -15 9 0 4 7 8 15 8 8 0 15 -4 15 -8z m204 -7 c3 -8 1
-15 -4 -15 -6 0 -10 7 -10 15 0 8 2 15 4 15 2 0 6 -7 10 -15z m-154 -26 c0
-14 -17 -10 -23 5 -4 10 -1 13 9 9 7 -3 14 -9 14 -14z m100 -5 c0 -8 -4 -12
-10 -9 -5 3 -10 13 -10 21 0 8 5 12 10 9 6 -3 10 -13 10 -21z m-183 -5 c2 -16
-1 -19 -9 -11 -5 5 -7 15 -4 21 10 15 12 14 13 -10z m224 -13 c-9 -11 -9 -16
0 -22 7 -4 15 -2 17 4 6 20 20 3 15 -18 -5 -20 -7 -20 -30 -5 -14 9 -28 14
-31 10 -4 -3 0 -10 8 -15 13 -8 12 -10 -2 -10 -10 0 -18 7 -18 16 0 25 19 54
37 54 12 0 13 -3 4 -14z m-256 -16 c3 -5 1 -10 -4 -10 -6 0 -11 5 -11 10 0 6
2 10 4 10 3 0 8 -4 11 -10z m195 -5 c0 -8 -7 -15 -16 -15 -14 0 -14 3 -4 15 7
8 14 15 16 15 2 0 4 -7 4 -15z m-540 -5 c0 -5 6 -10 14 -10 8 0 16 -6 18 -12
3 -7 12 -13 21 -13 9 0 17 -3 17 -7 0 -9 -1 -9 -40 -2 -16 4 -30 13 -30 20 0
8 -7 14 -16 14 -8 0 -12 5 -9 10 3 6 10 10 16 10 5 0 9 -4 9 -10z m297 -12
c-3 -8 -6 -5 -6 6 -1 11 2 17 5 13 3 -3 4 -12 1 -19z m-27 2 c0 -5 -5 -10 -11
-10 -5 0 -7 5 -4 10 3 6 8 10 11 10 2 0 4 -4 4 -10z m-135 -10 c3 -5 1 -10 -4
-10 -6 0 -11 5 -11 10 0 6 2 10 4 10 3 0 8 -4 11 -10z m-175 -25 c0 -8 -2 -15
-4 -15 -2 0 -6 7 -10 15 -3 8 -1 15 4 15 6 0 10 -7 10 -15z m607 -10 c0 -8 -5
-15 -10 -15 -5 0 -7 -7 -3 -15 3 -8 1 -15 -5 -15 -6 0 -8 -9 -4 -20 7 -22 -18
-29 -31 -8 -5 8 -2 9 11 4 15 -5 16 -4 5 9 -7 9 -8 15 -2 15 12 0 3 42 -12 53
-7 6 -4 7 7 3 9 -3 17 -1 17 4 0 5 6 7 13 4 8 -3 14 -11 14 -19z m-667 5 c0
-5 -7 -7 -15 -4 -8 4 -15 8 -15 10 0 2 7 4 15 4 8 0 15 -4 15 -10z m95 0 c3
-5 1 -10 -4 -10 -6 0 -11 5 -11 10 0 6 2 10 4 10 3 0 8 -4 11 -10z m135 -6 c0
-2 -7 -4 -15 -4 -8 0 -15 4 -15 10 0 5 7 7 15 4 8 -4 15 -8 15 -10z m490 -18
c0 -13 -9 -31 -20 -41 -18 -16 -20 -16 -20 -2 0 10 6 17 13 17 9 0 9 2 -1 9
-11 7 -12 12 -1 29 16 25 29 19 29 -12z m-530 4 c0 -5 -5 -10 -11 -10 -5 0 -7
5 -4 10 3 6 8 10 11 10 2 0 4 -4 4 -10z m70 -11 c0 -6 -4 -7 -10 -4 -5 3 -10
11 -10 16 0 6 5 7 10 4 6 -3 10 -11 10 -16z m110 11 c0 -5 -2 -10 -4 -10 -3 0
-8 5 -11 10 -3 6 -1 10 4 10 6 0 11 -4 11 -10z m504 -5 c-4 -8 -11 -15 -18
-15 -7 0 -7 -3 -1 -8 6 -4 2 -15 -12 -29 -27 -26 -29 -19 -8 31 14 34 51 54
39 21z m-909 -5 c3 -6 -1 -7 -9 -4 -18 7 -21 14 -7 14 6 0 13 -4 16 -10z m112
-12 c-3 -8 -6 -5 -6 6 -1 11 2 17 5 13 3 -3 4 -12 1 -19z m43 -4 c0 -8 -5 -12
-10 -9 -6 4 -8 11 -5 16 9 14 15 11 15 -7z m465 6 c3 -5 1 -10 -4 -10 -6 0
-11 5 -11 10 0 6 2 10 4 10 3 0 8 -4 11 -10z m-285 -10 c0 -5 -2 -10 -4 -10
-3 0 -8 5 -11 10 -3 6 -1 10 4 10 6 0 11 -4 11 -10z m180 0 c0 -5 -7 -10 -15
-10 -8 0 -15 5 -15 10 0 6 7 10 15 10 8 0 15 -4 15 -10z m-540 -10 c0 -5 -4
-10 -10 -10 -5 0 -10 5 -10 10 0 6 5 10 10 10 6 0 10 -4 10 -10z m970 1 c0 -6
-4 -12 -8 -15 -5 -3 -8 -19 -7 -36 2 -30 -8 -39 -20 -19 -11 18 5 79 20 79 8
0 15 -4 15 -9z m-870 -5 c0 -2 -7 -9 -15 -16 -13 -11 -14 -10 -9 4 5 14 24 23
24 12z m470 -12 c0 -8 -5 -12 -10 -9 -6 4 -8 11 -5 16 9 14 15 11 15 -7z
m-845 -3 c3 -5 1 -12 -5 -16 -5 -3 -10 1 -10 9 0 18 6 21 15 7z m445 -1 c0 -5
-5 -10 -11 -10 -5 0 -7 5 -4 10 3 6 8 10 11 10 2 0 4 -4 4 -10z m175 0 c3 -5
2 -10 -4 -10 -5 0 -13 5 -16 10 -3 6 -2 10 4 10 5 0 13 -4 16 -10z m175 0 c0
-5 -10 -15 -22 -21 l-23 -12 20 21 c23 24 25 25 25 12z m-485 -10 c-3 -5 -10
-10 -16 -10 -5 0 -9 5 -9 10 0 6 7 10 16 10 8 0 12 -4 9 -10z m885 0 c0 -5 -2
-10 -4 -10 -3 0 -8 5 -11 10 -3 6 -1 10 4 10 6 0 11 -4 11 -10z m86 -16 c-5
-17 -3 -24 4 -19 6 4 21 -1 32 -12 21 -18 21 -18 14 2 -6 15 -4 17 5 8 15 -15
3 -66 -14 -60 -7 2 -20 0 -29 -5 -18 -9 -25 2 -11 16 13 12 11 35 -2 30 -18
-7 -30 47 -13 57 20 13 21 11 14 -17z m-746 0 c0 -17 -22 -14 -28 4 -2 7 3 12
12 12 9 0 16 -7 16 -16z m-300 -4 c0 -5 -4 -10 -10 -10 -5 0 -10 5 -10 10 0 6
5 10 10 10 6 0 10 -4 10 -10z m48 -8 c-10 -2 -18 -8 -18 -14 0 -6 -2 -9 -5 -6
-12 12 7 37 23 30 16 -6 15 -7 0 -10z m332 8 c0 -5 -7 -10 -15 -10 -21 0 -19
-16 6 -33 12 -9 16 -18 10 -21 -5 -4 -14 2 -20 11 -8 14 -12 16 -22 6 -16 -16
-29 -17 -29 -3 0 6 8 10 18 10 14 0 15 2 2 10 -8 5 -12 10 -10 12 45 29 60 33
60 18z m921 -17 c-12 -20 -14 -14 -5 12 4 9 9 14 11 11 3 -2 0 -13 -6 -23z
m-1361 4 c0 -5 -9 -5 -20 -2 -11 4 -20 2 -20 -4 0 -6 -4 -11 -10 -11 -5 0 -7
7 -4 15 6 15 54 17 54 2z m720 9 c0 -3 -4 -8 -10 -11 -5 -3 -10 -1 -10 4 0 6
5 11 10 11 6 0 10 -2 10 -4z m270 -17 c0 -5 -4 -9 -10 -9 -5 0 -10 7 -10 16 0
8 5 12 10 9 6 -3 10 -10 10 -16z m-1340 4 c-1 -18 -18 -35 -24 -24 -4 6 -4 16
-1 21 7 12 25 13 25 3z m880 -7 c0 -3 -4 -8 -10 -11 -5 -3 -10 -1 -10 4 0 6 5
11 10 11 6 0 10 -2 10 -4z m43 -11 c-3 -9 -8 -14 -10 -11 -3 3 -2 9 2 15 9 16
15 13 8 -4z m-578 -5 c-3 -5 -14 -10 -23 -10 -15 0 -15 2 -2 10 20 13 33 13
25 0z m35 0 c0 -5 -5 -10 -11 -10 -5 0 -7 5 -4 10 3 6 8 10 11 10 2 0 4 -4 4
-10z m558 -19 c-8 -12 -17 -18 -21 -15 -5 6 25 43 32 38 1 -1 -3 -12 -11 -23z
m495 9 c3 -11 1 -18 -4 -14 -5 3 -9 12 -9 20 0 20 7 17 13 -6z m113 5 c-3 -8
0 -15 6 -15 7 0 4 -6 -7 -13 -13 -10 -16 -21 -12 -39 5 -18 3 -25 -9 -25 -10
0 -14 7 -11 19 3 10 1 18 -5 18 -5 0 -3 7 6 15 8 8 18 24 21 35 3 11 9 20 12
20 3 0 3 -7 -1 -15z m211 1 c-3 -7 -1 -18 5 -24 12 -12 4 -42 -11 -42 -15 0
-23 51 -10 66 15 18 23 18 16 0z m-1593 -54 c-29 -29 -29 -24 1 25 14 23 21
28 23 17 2 -8 -9 -27 -24 -42z m956 48 c0 -5 -5 -10 -11 -10 -5 0 -7 5 -4 10
3 6 8 10 11 10 2 0 4 -4 4 -10z m50 0 c0 -5 -2 -10 -4 -10 -3 0 -8 5 -11 10
-3 6 -1 10 4 10 6 0 11 -4 11 -10z m65 0 c3 -5 -3 -18 -15 -30 -22 -22 -39
-27 -21 -6 6 7 9 21 5 30 -7 18 20 23 31 6z m-238 -15 c0 -8 -4 -12 -9 -9 -4
3 -8 1 -8 -4 0 -5 -7 -9 -15 -9 -22 0 -18 12 8 25 12 6 22 11 23 11 0 1 1 -6
1 -14z m273 5 c0 -5 -4 -10 -10 -10 -5 0 -10 5 -10 10 0 6 5 10 10 10 6 0 10
-4 10 -10z m-1030 -16 c0 -2 -9 -4 -21 -4 -11 0 -18 4 -14 10 5 8 35 3 35 -6z
m65 -20 c-10 -20 -15 -23 -15 -11 0 16 21 49 28 42 1 -1 -4 -15 -13 -31z
m1339 27 c4 -5 0 -11 -6 -14 -9 -3 -6 -10 10 -22 12 -9 22 -26 21 -38 l0 -22
-9 23 c-10 24 -29 30 -31 10 -1 -7 -5 3 -9 22 -5 19 -6 38 -4 42 7 11 22 10
28 -1z m-1518 -30 c-9 -10 -14 -21 -11 -24 3 -4 0 -3 -6 2 -14 11 7 55 22 45
6 -4 4 -12 -5 -23z m449 19 c3 -5 1 -10 -4 -10 -6 0 -11 5 -11 10 0 6 2 10 4
10 3 0 8 -4 11 -10z m815 0 c0 -5 -7 -10 -16 -10 -10 0 -14 -6 -11 -15 4 -8 2
-17 -3 -20 -11 -7 -13 15 -4 39 7 17 34 22 34 6z m208 -14 c12 -28 5 -41 -13
-23 -12 13 -16 47 -5 47 4 0 12 -11 18 -24z m120 -11 c-9 -21 -12 -22 -26 -9
-13 13 -12 17 4 29 25 18 36 9 22 -20z m-1008 21 c0 -3 -4 -8 -10 -11 -5 -3
-10 -1 -10 4 0 6 5 11 10 11 6 0 10 -2 10 -4z m177 -18 c-3 -8 -6 -5 -6 6 -1
11 2 17 5 13 3 -3 4 -12 1 -19z m207 -2 c-3 -9 -10 -16 -15 -16 -6 0 -5 9 1
21 13 24 24 20 14 -5z m168 -8 c-7 -7 -12 -8 -12 -2 0 14 12 26 19 19 2 -3 -1
-11 -7 -17z m-741 -25 c-12 -20 -14 -14 -5 12 4 9 9 14 11 11 3 -2 0 -13 -6
-23z m309 17 c0 -5 -2 -10 -4 -10 -3 0 -8 5 -11 10 -3 6 -1 10 4 10 6 0 11 -4
11 -10z m477 -20 c1 -11 -2 -22 -8 -25 -10 -7 -13 28 -2 38 9 9 9 10 10 -13z
m-1147 -15 c0 -8 -5 -17 -12 -21 -7 -4 -8 -3 -4 5 4 6 2 19 -5 27 -10 12 -9
13 5 8 9 -3 16 -12 16 -19z m255 15 c3 -5 1 -10 -4 -10 -6 0 -11 5 -11 10 0 6
2 10 4 10 3 0 8 -4 11 -10z m65 1 c0 -15 -49 -68 -50 -53 0 6 5 12 10 12 6 0
16 11 22 25 12 26 18 32 18 16z m649 -12 c-16 -10 -23 -4 -14 10 3 6 11 8 17
5 6 -4 5 -9 -3 -15z m444 -16 c7 -40 4 -49 -12 -38 -13 7 -15 75 -2 75 4 0 11
-17 14 -37z m167 21 c0 -8 -4 -12 -10 -9 -5 3 -10 10 -10 16 0 5 5 9 10 9 6 0
10 -7 10 -16z m-480 2 c0 -11 -19 -15 -25 -6 -3 5 1 10 9 10 9 0 16 -2 16 -4z
m-385 -16 c-3 -5 -12 -10 -18 -10 -7 0 -6 4 3 10 19 12 23 12 15 0z m585 -5
c0 -8 -4 -15 -10 -15 -5 0 -10 7 -10 15 0 8 5 15 10 15 6 0 10 -7 10 -15z
m150 -2 c0 -10 -4 -14 -8 -8 -4 6 -11 13 -16 18 -5 4 -2 7 7 7 10 0 17 -8 17
-17z m-1605 -15 c-1 -14 -9 -24 -21 -27 -10 -2 -23 -9 -27 -17 -4 -8 -15 -14
-24 -14 -12 0 -9 6 10 26 16 16 31 23 39 18 7 -4 10 -4 6 1 -4 4 -3 14 3 22
15 17 16 17 14 -9z m115 12 c0 -5 -7 -10 -16 -10 -8 0 -12 5 -9 10 3 6 10 10
16 10 5 0 9 -4 9 -10z m615 -8 c-3 -3 -11 0 -18 7 -9 10 -8 11 6 5 10 -3 15
-9 12 -12z m182 -4 c-3 -8 -6 -5 -6 6 -1 11 2 17 5 13 3 -3 4 -12 1 -19z m66
7 c-3 -9 -8 -14 -10 -11 -3 3 -2 9 2 15 9 16 15 13 8 -4z m-899 -11 c4 -9 4
-19 1 -22 -3 -3 -5 0 -5 6 0 7 -7 12 -15 12 -8 0 -15 5 -15 10 0 16 27 11 34
-6z m121 6 c-3 -5 -11 -10 -16 -10 -6 0 -7 5 -4 10 3 6 11 10 16 10 6 0 7 -4
4 -10z m450 -8 c-3 -3 -11 0 -18 7 -9 10 -8 11 6 5 10 -3 15 -9 12 -12z m863
-17 c-3 -3 -9 2 -12 12 -6 14 -5 15 5 6 7 -7 10 -15 7 -18z m-1244 -10 c-4 -8
-10 -15 -15 -15 -4 0 -6 7 -3 15 4 8 10 15 15 15 4 0 6 -7 3 -15z m65 -11
c-15 -18 -39 -18 -39 -1 0 20 9 25 31 20 15 -4 17 -8 8 -19z m701 16 c0 -5 -5
-10 -11 -10 -5 0 -7 5 -4 10 3 6 8 10 11 10 2 0 4 -4 4 -10z m-1130 -15 c-14
-17 -30 -20 -30 -6 0 5 8 12 18 14 9 3 19 5 21 6 2 0 -2 -6 -9 -14z m154 0
c-4 -8 -10 -15 -16 -15 -5 0 -6 -5 -2 -12 5 -7 3 -8 -5 -4 -9 6 -8 13 5 27 21
23 25 24 18 4z m116 11 c0 -3 -4 -8 -10 -11 -5 -3 -10 -1 -10 4 0 6 5 11 10
11 6 0 10 -2 10 -4z m804 -16 c-6 -6 -15 -5 -24 1 -13 9 -12 10 3 5 9 -3 17 0
17 6 0 6 3 8 7 5 4 -4 2 -12 -3 -17z m316 11 c0 -5 -7 -12 -16 -15 -14 -5 -15
-4 -4 9 14 17 20 19 20 6z m-865 -11 c3 -5 1 -10 -4 -10 -6 0 -11 5 -11 10 0
6 2 10 4 10 3 0 8 -4 11 -10z m-82 -22 c-11 -13 -18 -29 -16 -35 3 -7 -2 -13
-11 -13 -9 0 -16 2 -16 5 0 12 44 65 54 65 5 0 0 -10 -11 -22z m683 2 c9 0 12
-4 9 -10 -11 -18 -31 -10 -32 13 0 12 1 16 4 10 3 -7 11 -13 19 -13z m111 -2
c-3 -8 -6 -5 -6 6 -1 11 2 17 5 13 3 -3 4 -12 1 -19z m-47 -14 c0 -8 -6 -11
-15 -7 -20 7 -16 -17 5 -35 13 -11 11 -11 -8 -2 -29 14 -29 70 0 62 10 -2 18
-10 18 -18z m463 11 c4 -8 2 -17 -3 -20 -6 -4 -10 3 -10 14 0 25 6 27 13 6z
m-1667 -22 c-10 -10 -19 5 -10 18 6 11 8 11 12 0 2 -7 1 -15 -2 -18z m194 17
c0 -5 -4 -10 -10 -10 -5 0 -10 5 -10 10 0 6 5 10 10 10 6 0 10 -4 10 -10z
m774 -32 c-9 -14 -23 2 -17 18 4 12 8 13 14 3 4 -7 5 -17 3 -21z m292 0 c-9
-5 -16 -14 -16 -21 0 -7 4 -6 10 3 6 9 10 10 10 3 0 -16 -13 -23 -28 -14 -16
9 -4 49 17 53 22 5 28 -13 7 -24z m-436 12 c0 -5 -7 -10 -16 -10 -8 0 -12 5
-9 10 3 6 10 10 16 10 5 0 9 -4 9 -10z m-332 -14 c-2 -1 -12 -8 -22 -16 -18
-14 -19 -14 -7 8 7 12 17 20 22 16 6 -3 9 -7 7 -8z m62 4 c0 -5 -4 -10 -10
-10 -5 0 -10 5 -10 10 0 6 5 10 10 10 6 0 10 -4 10 -10z m-305 -10 c3 -5 1
-10 -4 -10 -6 0 -11 5 -11 10 0 6 2 10 4 10 3 0 8 -4 11 -10z m805 -11 c0 -12
-17 -11 -25 1 -4 6 -11 7 -17 4 -6 -4 -8 -2 -5 4 8 12 47 4 47 -9z m64 5 c4
-10 1 -14 -6 -12 -15 5 -23 28 -10 28 5 0 13 -7 16 -16z m212 -7 c12 5 13 1 3
-21 -17 -36 -25 -33 -25 12 -1 20 1 29 3 20 3 -10 10 -15 19 -11z m114 13 c0
-5 -7 -10 -15 -10 -8 0 -15 5 -15 10 0 6 7 10 15 10 8 0 15 -4 15 -10z m355 2
c-3 -3 -1 -10 5 -16 5 -7 5 -17 0 -26 -7 -11 -10 -12 -10 -2 0 7 -3 11 -7 9
-5 -3 -8 5 -8 17 0 13 6 23 13 23 6 0 10 -3 7 -5z m-1195 -17 c0 -12 -19 -12
-23 0 -4 9 -1 12 9 8 7 -3 14 -7 14 -8z m-490 -5 c0 -5 -2 -10 -4 -10 -3 0 -8
5 -11 10 -3 6 -1 10 4 10 6 0 11 -4 11 -10z m289 -3 c-2 -1 -12 -9 -22 -16
-15 -12 -17 -12 -11 3 3 9 13 16 22 16 8 0 13 -1 11 -3z m981 -17 c0 -17 -2
-19 -14 -8 -10 9 -11 15 -2 20 16 11 16 10 16 -12z m-825 -13 c0 -18 -4 -23
-18 -19 -17 4 -17 6 -1 23 9 11 18 19 18 19 1 0 1 -11 1 -23z m291 8 c-8 -8
-18 -15 -22 -15 -3 0 -1 7 6 15 7 8 17 15 22 15 5 0 3 -7 -6 -15z m234 11 c0
-3 -4 -8 -10 -11 -5 -3 -10 -1 -10 4 0 6 5 11 10 11 6 0 10 -2 10 -4z m-750
-16 c0 -5 -5 -10 -11 -10 -5 0 -7 5 -4 10 3 6 8 10 11 10 2 0 4 -4 4 -10z
m1493 -31 c-3 -10 0 -19 6 -19 6 0 11 5 11 10 0 6 8 10 18 10 14 -1 13 -4 -7
-20 -13 -11 -17 -20 -10 -20 10 0 10 -3 1 -12 -17 -17 -24 -5 -29 49 -3 32 -1
44 5 34 5 -7 7 -22 5 -32z m-466 11 c10 -13 8 -16 -8 -16 -10 0 -19 1 -19 2 0
6 13 34 14 32 1 -2 7 -10 13 -18z m118 -20 c-9 -41 -17 -33 -9 9 4 17 9 30 11
27 3 -2 2 -19 -2 -36z m-1455 26 c0 -2 -7 -6 -15 -10 -8 -3 -15 -1 -15 4 0 6
7 10 15 10 8 0 15 -2 15 -4z m60 -17 c0 -6 -4 -7 -10 -4 -5 3 -10 11 -10 16 0
6 5 7 10 4 6 -3 10 -11 10 -16z m190 -14 c-13 -16 -34 -10 -24 6 3 5 10 7 15
4 5 -4 9 2 10 12 0 11 3 13 6 5 3 -7 -1 -19 -7 -27z m110 31 c0 -3 -4 -8 -10
-11 -5 -3 -10 -1 -10 4 0 6 5 11 10 11 6 0 10 -2 10 -4z m830 -17 c-7 -11 -14
-19 -16 -16 -7 7 7 37 17 37 6 0 5 -9 -1 -21z m-746 -5 c3 -8 2 -12 -4 -9 -6
3 -10 1 -10 -6 0 -7 -2 -10 -5 -7 -5 5 4 38 10 38 2 0 6 -7 9 -16z m356 6 c0
-5 -5 -10 -11 -10 -5 0 -7 5 -4 10 3 6 8 10 11 10 2 0 4 -4 4 -10z m83 -16 c1
-4 -6 -8 -15 -10 -15 -2 -16 1 -6 19 10 20 14 18 21 -9z m647 16 c0 -5 -5 -10
-11 -10 -5 0 -7 5 -4 10 3 6 8 10 11 10 2 0 4 -4 4 -10z m-465 -10 c3 -5 1
-10 -4 -10 -6 0 -11 5 -11 10 0 6 2 10 4 10 3 0 8 -4 11 -10z m352 -12 c-3 -8
-6 -5 -6 6 -1 11 2 17 5 13 3 -3 4 -12 1 -19z m-1037 8 c0 -2 -9 -6 -20 -9
-11 -3 -18 -1 -14 4 5 9 34 13 34 5z m322 -18 c-7 -7 -12 -8 -12 -2 0 14 12
26 19 19 2 -3 -1 -11 -7 -17z m-687 2 c3 -5 2 -10 -4 -10 -5 0 -13 5 -16 10
-3 6 -2 10 4 10 5 0 13 -4 16 -10z m1125 7 c0 -1 -9 -10 -19 -19 -17 -14 -20
-14 -25 -2 -3 9 -1 12 4 9 6 -3 10 -1 10 4 0 6 7 11 15 11 8 0 15 -1 15 -3z
m143 -4 c-7 -2 -19 -2 -25 0 -7 3 -2 5 12 5 14 0 19 -2 13 -5z m239 -39 c-9
-16 -10 -14 -9 8 1 15 6 23 11 18 4 -4 4 -16 -2 -26z m-475 10 c-3 -3 -12 -4
-19 -1 -8 3 -5 6 6 6 11 1 17 -2 13 -5z m127 -34 c-6 -5 -24 21 -24 34 0 6 6
1 14 -10 8 -10 12 -21 10 -24z m-33 -13 c-10 -9 -11 -8 -5 6 3 10 9 15 12 12
3 -3 0 -11 -7 -18z m1231 -41 c4 -6 7 -23 6 -39 -3 -38 -33 -36 -47 4 -9 27
-13 30 -26 19 -12 -10 -15 -10 -15 0 0 34 63 46 82 16z"/>
<path d="M1787 3176 c-4 -10 -1 -13 7 -10 21 8 31 -17 13 -31 -12 -9 -13 -15
-5 -23 9 -9 0 -16 -33 -31 -24 -10 -57 -22 -73 -25 -25 -6 -28 -4 -22 11 6 17
6 17 -8 0 -16 -21 -10 -57 12 -74 9 -7 34 -13 56 -12 l41 1 -32 9 c-35 10 -42
29 -18 49 12 10 16 8 25 -14 10 -28 17 -31 52 -17 17 6 28 25 43 71 19 62 19
62 0 76 -11 7 -25 18 -32 24 -16 13 -20 13 -26 -4z"/>
<path d="M1780 2975 c-14 -8 -20 -14 -14 -15 5 0 19 7 30 15 24 18 16 19 -16
0z"/>
<path d="M1984 2962 c-5 -4 -15 -24 -21 -45 -11 -36 -10 -39 13 -48 14 -5 32
-9 40 -9 8 0 14 -3 15 -7 0 -5 2 -16 4 -26 2 -10 -2 -17 -8 -16 -7 1 -19 0
-27 -4 -26 -10 -79 -14 -74 -5 3 4 -1 8 -8 8 -7 0 -19 -9 -26 -20 -6 -11 -18
-17 -26 -14 -11 4 -13 0 -9 -15 6 -25 40 -36 87 -27 24 5 37 2 46 -9 29 -35
103 -1 113 52 4 21 -5 45 -39 99 -48 79 -65 96 -80 86z m54 -191 c1 -16 -2
-32 -8 -36 -6 -4 -10 8 -10 29 0 43 15 48 18 7z"/>
<path d="M1790 2761 c0 -5 3 -16 6 -25 5 -13 10 -13 27 -5 20 11 20 12 2 25
-22 16 -35 18 -35 5z"/>
<path d="M2425 2600 c3 -5 8 -10 11 -10 2 0 4 5 4 10 0 6 -5 10 -11 10 -5 0
-7 -4 -4 -10z"/>
<path d="M2006 2574 c-4 -11 -10 -12 -25 -4 -22 11 -51 4 -67 -18 -6 -9 -25
-15 -43 -14 -18 0 -31 -4 -31 -11 0 -8 -3 -8 -9 1 -6 11 -11 10 -25 -3 -9 -9
-14 -21 -11 -26 4 -5 -1 -9 -9 -9 -24 0 -19 -17 6 -23 13 -4 29 0 38 7 33 30
122 42 258 36 34 -2 49 -6 40 -11 -24 -16 9 -10 51 9 31 14 38 21 29 30 -7 7
-28 12 -47 12 -20 0 -48 7 -63 14 -42 22 -86 27 -92 10z"/>
<path d="M1975 2428 c-22 -6 -50 -12 -63 -14 -37 -7 -13 -26 27 -21 33 3 111
34 111 43 0 6 -30 3 -75 -8z"/>
<path d="M1150 2142 c0 -18 4 -32 9 -32 5 0 8 11 6 25 -4 38 -15 43 -15 7z"/>
<path d="M1447 2089 c-4 -16 -2 -17 14 -8 23 12 23 15 5 22 -8 3 -16 -2 -19
-14z"/>
<path d="M1510 2088 c0 -4 7 -8 15 -8 8 0 15 4 15 8 0 5 -7 9 -15 9 -8 0 -15
-4 -15 -9z"/>
<path d="M1487 2083 c-10 -9 -9 -23 1 -23 5 0 9 7 9 15 0 17 -1 18 -10 8z"/>
<path d="M1364 2059 c0 -20 11 -25 20 -10 3 5 0 13 -7 19 -10 8 -13 6 -13 -9z"/>
<path d="M1555 2066 c-14 -10 -15 -15 -5 -21 8 -5 11 -4 6 3 -4 6 3 12 16 14
14 2 18 6 12 10 -6 4 -19 1 -29 -6z"/>
<path d="M1728 2063 c7 -3 16 -2 19 1 4 3 -2 6 -13 5 -11 0 -14 -3 -6 -6z"/>
<path d="M1270 2050 c0 -5 5 -10 11 -10 5 0 7 5 4 10 -3 6 -8 10 -11 10 -2 0
-4 -4 -4 -10z"/>
<path d="M1877 2046 c-4 -9 -3 -15 2 -11 5 3 11 0 13 -7 3 -7 7 -5 11 6 4 9 3
15 -2 11 -5 -3 -11 0 -13 7 -3 7 -7 5 -11 -6z"/>
<path d="M1920 2030 c0 -5 5 -10 10 -10 6 0 10 5 10 10 0 6 -4 10 -10 10 -5 0
-10 -4 -10 -10z"/>
<path d="M1360 2020 c0 -6 7 -10 15 -10 8 0 15 2 15 4 0 2 -7 6 -15 10 -8 3
-15 1 -15 -4z"/>
<path d="M1478 2003 c7 -3 16 -2 19 1 4 3 -2 6 -13 5 -11 0 -14 -3 -6 -6z"/>
<path d="M1905 2000 c-3 -5 1 -10 10 -10 9 0 13 5 10 10 -3 6 -8 10 -10 10 -2
0 -7 -4 -10 -10z"/>
<path d="M1775 1990 c-3 -5 -16 -10 -28 -11 -20 -1 -20 -2 3 -8 14 -4 27 -4
28 1 2 4 8 6 13 2 5 -3 9 2 9 10 0 18 -16 21 -25 6z"/>
<path d="M1416 1977 c3 -10 9 -15 12 -12 3 3 0 11 -7 18 -10 9 -11 8 -5 -6z"/>
<path d="M1654 1967 l-21 -12 21 -48 c14 -31 31 -52 49 -60 29 -13 34 -22 15
-30 -14 -6 15 -10 44 -8 23 3 34 -20 14 -31 -9 -5 -16 -14 -16 -19 0 -6 7 -3
16 5 19 20 23 20 67 1 41 -17 55 -34 37 -45 -9 -5 -9 -9 -1 -14 6 -4 11 -2 11
5 0 8 4 8 15 -1 13 -11 13 -15 3 -21 -9 -6 -10 -9 -1 -9 7 0 16 7 20 15 5 8
25 16 46 17 37 3 46 11 26 24 -6 3 -15 0 -20 -7 -7 -11 -9 -11 -9 -1 0 7 -4
10 -10 7 -5 -3 -10 1 -10 9 0 13 -29 29 -57 30 -6 1 -21 13 -33 29 -12 15 -29
26 -38 25 -13 -2 -16 4 -14 25 2 17 -1 26 -7 23 -5 -4 -16 2 -23 12 -14 20
-17 22 -44 22 -14 0 -14 3 -4 15 10 12 10 15 -4 15 -9 0 -16 8 -16 20 0 23
-24 26 -56 7z m136 -121 c0 -2 -7 -7 -16 -10 -8 -3 -12 -2 -9 4 6 10 25 14 25
6z m55 -36 c3 -5 1 -10 -4 -10 -6 0 -11 5 -11 10 0 6 2 10 4 10 3 0 8 -4 11
-10z m81 -98 c-4 -3 -11 0 -16 8 -15 24 -11 33 6 15 9 -9 13 -19 10 -23z"/>
<path d="M1286 1887 c3 -10 9 -15 12 -12 3 3 0 11 -7 18 -10 9 -11 8 -5 -6z"/>
<path d="M1602 1870 c12 -18 48 -21 48 -4 0 6 -13 14 -29 16 -24 4 -27 2 -19
-12z"/>
<path d="M1585 1759 c-4 -6 -5 -12 -2 -15 2 -3 7 2 10 11 7 17 1 20 -8 4z"/>
<path d="M1806 1733 c-3 -10 -9 -24 -12 -31 -4 -8 0 -10 10 -6 9 3 16 1 16 -5
0 -6 5 -11 11 -11 6 0 9 6 6 14 -3 8 -1 17 6 20 7 3 2 3 -10 0 -18 -4 -20 -1
-16 16 7 24 -2 27 -11 3z"/>
<path d="M1080 1728 c0 -6 -3 -9 -6 -5 -8 8 -32 -15 -35 -34 -1 -8 1 -22 5
-31 6 -13 12 -15 26 -8 21 11 34 50 17 50 -7 0 -4 7 6 14 15 12 16 14 2 20 -8
3 -15 0 -15 -6z"/>
<path d="M1765 1730 c-3 -6 1 -7 9 -4 18 7 21 14 7 14 -6 0 -13 -4 -16 -10z"/>
<path d="M1656 1712 c-2 -4 -1 -14 4 -22 7 -11 9 -9 7 8 -1 24 -3 26 -11 14z"/>
<path d="M1690 1710 c0 -5 5 -10 10 -10 6 0 10 5 10 10 0 6 -4 10 -10 10 -5 0
-10 -4 -10 -10z"/>
<path d="M2044 1706 c20 -9 25 -15 15 -19 -8 -3 -9 -6 -2 -6 6 -1 14 3 17 8 3
5 16 7 29 5 20 -4 19 -3 -3 7 -14 6 -38 13 -55 15 l-30 3 29 -13z"/>
<path d="M2010 1690 c-13 -8 -13 -10 2 -10 9 0 20 5 23 10 8 13 -5 13 -25 0z"/>
<path d="M2280 1690 c0 -5 5 -10 10 -10 6 0 10 5 10 10 0 6 -4 10 -10 10 -5 0
-10 -4 -10 -10z"/>
<path d="M1707 1654 c-20 -41 -20 -44 -7 -44 6 0 9 3 8 8 -1 4 2 17 6 30 6 17
13 21 27 17 24 -8 25 1 1 14 -16 8 -22 4 -35 -25z"/>
<path d="M1852 1674 c-7 -8 -10 -19 -6 -26 5 -7 10 -3 16 12 10 28 7 33 -10
14z"/>
<path d="M2133 1674 c-17 -17 -16 -24 2 -24 8 0 15 -5 15 -10 0 -11 40 8 52
25 11 14 10 25 -3 25 -5 0 -7 -4 -4 -10 3 -5 0 -10 -9 -10 -8 0 -17 6 -20 13
-3 6 -3 2 0 -10 7 -28 -4 -31 -14 -4 -6 16 -9 17 -19 5z"/>
<path d="M2224 1683 c11 -11 46 -14 46 -3 0 6 -12 10 -27 10 -14 0 -23 -3 -19
-7z"/>
<path d="M2076 1665 c-3 -8 -1 -15 4 -15 6 0 10 7 10 15 0 8 -2 15 -4 15 -2 0
-6 -7 -10 -15z"/>
<path d="M1621 1654 c0 -11 3 -14 6 -6 3 7 2 16 -1 19 -3 4 -6 -2 -5 -13z"/>
<path d="M1756 1633 l-17 -38 26 30 26 30 -5 -27 c-5 -22 -3 -26 9 -22 18 7
19 18 5 45 -15 28 -24 24 -44 -18z"/>
<path d="M1886 1661 c-4 -7 -5 -15 -2 -18 9 -9 19 4 14 18 -4 11 -6 11 -12 0z"/>
<path d="M2379 1651 c10 -18 9 -21 -8 -21 -11 0 -21 5 -23 12 -3 9 -6 9 -12 0
-4 -7 -2 -12 5 -12 8 0 8 -5 -2 -17 -11 -15 -11 -16 1 -5 8 6 23 12 33 12 16
0 17 -3 7 -15 -10 -12 -10 -15 4 -15 10 0 16 9 16 24 0 13 6 26 13 29 15 5 9
13 -21 22 -22 6 -23 5 -13 -14z"/>
<path d="M1912 1648 c2 -6 10 -14 16 -16 7 -2 10 2 6 12 -7 18 -28 22 -22 4z"/>
<path d="M2015 1650 c-3 -6 1 -7 9 -4 18 7 21 14 7 14 -6 0 -13 -4 -16 -10z"/>
<path d="M2214 1648 c-5 -8 -2 -9 9 -5 11 4 17 1 17 -8 0 -8 5 -15 10 -15 14
0 13 13 -2 28 -15 15 -25 15 -34 0z"/>
<path d="M2270 1650 c0 -5 5 -10 10 -10 6 0 10 5 10 10 0 6 -4 10 -10 10 -5 0
-10 -4 -10 -10z"/>
<path d="M1426 1636 c9 -23 33 -28 27 -5 -3 10 -11 19 -19 19 -7 0 -11 -6 -8
-14z"/>
<path d="M1956 1641 c-4 -7 -5 -15 -2 -18 9 -9 19 4 14 18 -4 11 -6 11 -12 0z"/>
<path d="M1540 1630 c0 -5 4 -10 10 -10 5 0 7 -6 4 -13 -6 -18 32 -16 49 2 10
11 9 13 -3 9 -8 -3 -21 1 -28 9 -16 15 -32 17 -32 3z"/>
<path d="M1975 1615 c-5 -11 -10 -24 -13 -30 -3 -5 3 -3 13 7 9 9 15 22 12 30
-3 9 -7 7 -12 -7z"/>
<path d="M2118 1622 c-12 -5 -14 -12 -9 -21 7 -11 11 -9 20 8 7 11 10 21 9 20
-2 0 -11 -3 -20 -7z"/>
<path d="M1496 1603 c-6 -14 -5 -15 5 -6 7 7 10 15 7 18 -3 3 -9 -2 -12 -12z"/>
<path d="M1890 1610 c-8 -5 -11 -12 -7 -16 4 -4 13 -2 19 4 15 15 7 24 -12 12z"/>
<path d="M1923 1605 c0 -8 4 -15 9 -15 4 0 8 7 8 15 0 8 -4 15 -8 15 -5 0 -9
-7 -9 -15z"/>
<path d="M2282 1608 c-7 -7 -12 -9 -12 -4 0 4 -7 0 -16 -9 -28 -27 -7 -29 23
-1 15 14 25 26 22 26 -3 0 -10 -5 -17 -12z"/>
<path d="M2005 1600 c-3 -5 -1 -10 4 -10 6 0 11 5 11 10 0 6 -2 10 -4 10 -3 0
-8 -4 -11 -10z"/>
<path d="M2141 1584 c-16 -20 -18 -30 -10 -40 12 -14 29 -10 29 6 0 5 -8 7
-17 3 -16 -6 -16 -3 2 18 11 13 25 27 30 31 6 5 6 8 -2 8 -6 0 -21 -12 -32
-26z"/>
<path d="M2425 1590 c-3 -5 -2 -10 4 -10 5 0 13 5 16 10 3 6 2 10 -4 10 -5 0
-13 -4 -16 -10z"/>
<path d="M1686 1574 c-4 -10 -1 -14 6 -12 15 5 23 28 10 28 -5 0 -13 -7 -16
-16z"/>
<path d="M1980 1570 c0 -6 -8 -10 -17 -8 -10 2 -24 -3 -30 -12 -10 -12 -14
-12 -21 -2 -6 9 -13 7 -28 -10 -16 -19 -16 -21 -1 -9 14 11 21 11 29 3 15 -15
29 -15 26 -1 -3 12 60 34 69 25 2 -2 0 -15 -7 -28 -11 -22 -11 -22 5 -3 13 17
17 18 25 5 5 -8 12 -11 16 -7 7 7 -13 27 -48 48 -13 7 -18 6 -18 -1z"/>
<path d="M2340 1569 c0 -5 5 -7 10 -4 6 3 10 8 10 11 0 2 -4 4 -10 4 -5 0 -10
-5 -10 -11z"/>
<path d="M2642 1568 c10 -7 9 -11 -7 -23 -35 -25 -45 -36 -45 -47 0 -6 9 -3
20 7 22 20 40 14 22 -7 -8 -10 -3 -13 19 -14 32 -1 35 6 18 38 -9 17 -8 23 5
30 25 14 19 23 -15 24 -21 1 -26 -2 -17 -8z"/>
<path d="M1165 1560 c-3 -5 -1 -10 4 -10 6 0 11 5 11 10 0 6 -2 10 -4 10 -3 0
-8 -4 -11 -10z"/>
<path d="M2398 1563 c7 -3 16 -2 19 1 4 3 -2 6 -13 5 -11 0 -14 -3 -6 -6z"/>
<path d="M2862 1565 c4 -5 3 -14 -3 -22 -6 -7 -10 -13 -8 -14 31 -6 38 -5 42
5 3 7 -5 18 -16 26 -12 7 -19 9 -15 5z"/>
<path d="M1812 1553 c-6 -2 -10 -9 -6 -14 8 -14 21 -11 28 6 6 15 1 17 -22 8z"/>
<path d="M2206 1552 c-3 -5 1 -9 9 -9 8 0 15 4 15 9 0 4 -4 8 -9 8 -6 0 -12
-4 -15 -8z"/>
<path d="M2260 1552 c-14 -6 -14 -9 1 -24 15 -14 18 -14 23 -2 3 8 1 14 -5 14
-6 0 -7 5 -4 10 7 11 6 11 -15 2z"/>
<path d="M2357 1540 c6 -7 9 -20 6 -29 -4 -14 -3 -14 6 -1 10 14 13 9 10 -16
0 -4 10 -12 23 -18 14 -7 22 -20 21 -32 -1 -12 2 -10 9 8 12 29 38 46 38 25 0
-7 9 -13 20 -14 20 -2 20 -1 -1 22 -21 21 -25 22 -46 8 -23 -15 -23 -15 -13
13 l10 29 -20 -24 c-17 -20 -23 -21 -22 -1 0 3 -12 14 -26 24 -15 11 -22 13
-15 6z"/>
<path d="M2465 1540 c-3 -5 -2 -10 4 -10 5 0 13 5 16 10 3 6 2 10 -4 10 -5 0
-13 -4 -16 -10z"/>
<path d="M2326 1531 c-4 -7 -5 -15 -2 -18 9 -9 19 4 14 18 -4 11 -6 11 -12 0z"/>
<path d="M2506 1531 c-3 -5 1 -11 9 -15 9 -3 15 0 15 9 0 16 -16 20 -24 6z"/>
<path d="M2975 1532 c-13 -9 -19 -46 -7 -38 5 3 12 15 15 26 6 22 6 22 -8 12z"/>
<path d="M2052 1500 c-7 -11 -8 -20 -3 -20 5 0 12 7 15 16 3 8 11 12 17 8 8
-4 9 -3 5 4 -10 17 -19 15 -34 -8z"/>
<path d="M1055 1490 c-3 -5 -1 -10 4 -10 6 0 11 5 11 10 0 6 -2 10 -4 10 -3 0
-8 -4 -11 -10z"/>
<path d="M1160 1491 c0 -6 4 -13 10 -16 6 -3 7 1 4 9 -7 18 -14 21 -14 7z"/>
<path d="M1966 1492 c-3 -5 6 -19 19 -30 14 -12 25 -17 25 -12 0 6 -7 13 -16
17 -8 3 -13 12 -10 19 6 15 -9 19 -18 6z"/>
<path d="M2820 1491 c0 -5 7 -12 16 -15 14 -5 15 -4 4 9 -14 17 -20 19 -20 6z"/>
<path d="M1365 1479 c-11 -17 1 -21 15 -4 8 9 8 15 2 15 -6 0 -14 -5 -17 -11z"/>
<path d="M1421 1474 c0 -11 3 -14 6 -6 3 7 2 16 -1 19 -3 4 -6 -2 -5 -13z"/>
<path d="M2085 1478 c-11 -6 -22 -14 -25 -18 -3 -4 -12 -10 -20 -13 -11 -4 -9
-6 5 -6 11 0 31 11 44 24 26 28 25 30 -4 13z"/>
<path d="M2696 1481 c-3 -5 1 -14 9 -21 13 -10 15 -9 15 9 0 21 -14 28 -24 12z"/>
<path d="M2985 1481 c-6 -6 -22 -16 -36 -23 l-26 -14 24 -11 c20 -10 22 -9 14
1 -8 10 -4 16 14 26 14 7 25 17 25 22 0 10 -4 10 -15 -1z"/>
<path d="M2893 1465 c0 -8 4 -12 9 -9 5 3 6 10 3 15 -9 13 -12 11 -12 -6z"/>
<path d="M1810 1455 c7 -8 19 -15 27 -15 12 0 12 2 -1 15 -8 8 -20 15 -27 15
-9 0 -8 -4 1 -15z"/>
<path d="M2527 1456 c-7 -8 -25 -16 -38 -19 -23 -4 -23 -4 3 -6 15 0 30 4 33
9 3 6 14 10 23 10 14 0 14 -2 3 -9 -7 -5 -12 -13 -10 -18 2 -6 15 1 29 15 14
13 20 22 13 18 -6 -3 -14 -2 -18 4 -9 14 -21 13 -38 -4z"/>
<path d="M2638 1463 c7 -3 16 -2 19 1 4 3 -2 6 -13 5 -11 0 -14 -3 -6 -6z"/>
<path d="M1077 1449 c7 -7 15 -10 18 -7 3 3 -2 9 -12 12 -14 6 -15 5 -6 -5z"/>
<path d="M1113 1445 c0 -8 9 -15 20 -15 16 0 17 3 7 15 -7 8 -16 15 -20 15 -3
0 -7 -7 -7 -15z"/>
<path d="M2316 1453 c5 -5 12 -12 16 -18 4 -6 8 -2 8 8 0 9 -7 17 -17 17 -9 0
-12 -3 -7 -7z"/>
<path d="M2863 1445 c0 -8 4 -12 8 -9 4 2 12 -3 17 -12 5 -9 15 -15 22 -12 9
3 3 12 -17 26 -22 15 -30 17 -30 7z"/>
<path d="M3020 1451 c0 -5 -9 -11 -20 -14 -11 -3 -20 -9 -20 -14 0 -7 13 -8
78 -4 7 1 10 6 7 11 -5 8 -11 8 -19 1 -16 -13 -27 -4 -19 15 3 8 2 14 -1 14
-3 0 -6 -4 -6 -9z"/>
<path d="M1395 1440 c-3 -5 -1 -10 4 -10 6 0 11 5 11 10 0 6 -2 10 -4 10 -3 0
-8 -4 -11 -10z"/>
<path d="M1674 1426 c0 -20 3 -23 17 -15 10 5 21 15 25 22 5 8 2 7 -9 -2 -15
-12 -17 -11 -17 3 0 9 -4 16 -8 16 -4 0 -8 -11 -8 -24z"/>
<path d="M2090 1440 c-13 -8 -12 -10 3 -10 9 0 17 5 17 10 0 12 -1 12 -20 0z"/>
<path d="M2605 1440 c-3 -6 1 -7 9 -4 18 7 21 14 7 14 -6 0 -13 -4 -16 -10z"/>
<path d="M2725 1440 c-3 -6 1 -7 9 -4 18 7 21 14 7 14 -6 0 -13 -4 -16 -10z"/>
<path d="M1339 1423 c-11 -15 -11 -16 1 -5 18 15 34 16 24 0 -4 -7 -3 -8 5 -4
12 8 6 26 -8 26 -5 0 -15 -8 -22 -17z"/>
<path d="M1550 1428 c-13 -8 -12 -9 2 -5 9 3 19 1 21 -6 2 -7 7 -9 11 -6 13
12 -19 28 -34 17z"/>
<path d="M1900 1430 c-9 -6 -10 -10 -3 -10 6 0 15 5 18 10 8 12 4 12 -15 0z"/>
<path d="M2146 1423 c-6 -14 -5 -15 5 -6 7 7 10 15 7 18 -3 3 -9 -2 -12 -12z"/>
<path d="M2373 1433 c9 -2 14 -9 11 -15 -4 -7 -2 -8 5 -4 15 10 4 26 -17 25
-15 -1 -15 -2 1 -6z"/>
<path d="M2650 1436 c0 -2 9 -6 20 -9 11 -3 18 -1 14 4 -5 9 -34 13 -34 5z"/>
<path d="M3190 1425 c0 -8 7 -15 15 -15 9 0 12 6 9 15 -4 8 -10 15 -15 15 -5
0 -9 -7 -9 -15z"/>
<path d="M2446 1413 c-6 -14 -5 -15 5 -6 7 7 10 15 7 18 -3 3 -9 -2 -12 -12z"/>
<path d="M1645 1410 c-3 -5 -13 -7 -23 -4 -14 5 -15 4 -2 -5 20 -14 27 -14 34
4 6 17 0 20 -9 5z"/>
<path d="M2166 1405 c-9 -26 -7 -32 5 -12 6 10 9 21 6 23 -2 3 -7 -2 -11 -11z"/>
<path d="M2265 1410 c-3 -5 -1 -10 4 -10 6 0 11 5 11 10 0 6 -2 10 -4 10 -3 0
-8 -4 -11 -10z"/>
<path d="M2584 1401 c20 -22 26 -25 26 -13 0 4 -10 13 -22 21 -23 14 -23 14
-4 -8z"/>
<path d="M2632 1403 c9 -11 8 -17 -3 -24 -11 -7 -9 -9 9 -9 19 0 21 3 13 19
-6 10 -8 20 -6 23 3 3 -2 5 -10 5 -11 0 -12 -3 -3 -14z"/>
<path d="M1830 1399 c0 -5 5 -7 10 -4 6 3 10 8 10 11 0 2 -4 4 -10 4 -5 0 -10
-5 -10 -11z"/>
<path d="M2085 1390 c3 -5 8 -10 11 -10 2 0 4 5 4 10 0 6 -5 10 -11 10 -5 0
-7 -4 -4 -10z"/>
<path d="M2684 1383 c-18 -15 -18 -15 6 -9 14 3 31 6 39 6 8 0 11 3 7 7 -12
13 -32 11 -52 -4z"/>
<path d="M1157 1371 c-5 -22 7 -29 18 -11 5 8 11 8 20 0 9 -8 15 -8 20 0 5 8
-7 12 -31 9 -4 0 -10 5 -14 11 -5 8 -9 4 -13 -9z"/>
<path d="M1371 1381 c-10 -6 -10 -10 -1 -16 13 -8 24 -1 19 14 -3 6 -10 7 -18
2z"/>
<path d="M1670 1380 c-19 -6 -21 -8 -6 -9 11 -1 17 -4 13 -7 -7 -8 17 -34 32
-34 6 0 8 7 5 15 -4 8 -10 12 -15 9 -5 -3 -9 1 -9 10 0 8 6 17 13 19 19 8 -5
6 -33 -3z"/>
<path d="M2870 1368 c-12 -22 -12 -22 6 -6 10 10 15 20 12 24 -4 3 -12 -5 -18
-18z"/>
<path d="M1063 1363 c1 -17 4 -20 15 -11 10 9 15 9 22 -1 4 -7 10 -9 13 -5 3
5 -1 15 -9 21 -9 9 -15 10 -20 2 -4 -8 -9 -7 -15 2 -6 10 -8 7 -6 -8z"/>
<path d="M1971 1364 c0 -11 3 -14 6 -6 3 7 2 16 -1 19 -3 4 -6 -2 -5 -13z"/>
<path d="M2750 1356 c0 -24 23 -41 41 -30 18 11 9 25 -12 19 -18 -6 -20 -5
-10 14 10 17 9 21 -4 21 -9 0 -15 -9 -15 -24z"/>
<path d="M2812 1357 c2 -15 7 -28 13 -28 16 -1 16 16 0 36 -15 19 -15 19 -13
-8z"/>
<path d="M2955 1370 c-3 -5 -1 -10 6 -10 7 0 9 -3 5 -7 -8 -8 -12 -9 -43 -12
-17 -1 -17 -2 -1 -11 17 -10 68 5 68 20 0 15 -28 31 -35 20z"/>
<path d="M1236 1355 c-11 -8 -15 -15 -9 -15 6 0 16 7 23 15 16 19 11 19 -14 0z"/>
<path d="M1920 1352 c6 -13 14 -21 18 -18 3 4 -2 14 -12 24 -18 16 -18 16 -6
-6z"/>
<path d="M2240 1354 c0 -8 5 -12 10 -9 6 3 10 10 10 16 0 5 -4 9 -10 9 -5 0
-10 -7 -10 -16z"/>
<path d="M2540 1360 c0 -6 -11 -8 -25 -4 -14 3 -25 2 -25 -3 0 -5 20 -14 45
-20 49 -11 55 -6 25 20 -11 9 -20 12 -20 7z"/>
<path d="M1600 1344 c0 -13 39 -54 44 -46 3 5 -4 14 -14 22 -10 8 -17 17 -14
22 3 4 0 8 -5 8 -6 0 -11 -3 -11 -6z"/>
<path d="M1465 1330 c-3 -5 -1 -10 4 -10 6 0 11 5 11 10 0 6 -2 10 -4 10 -3 0
-8 -4 -11 -10z"/>
<path d="M1500 1325 c-7 -8 -9 -15 -6 -15 4 0 14 7 22 15 9 8 11 15 6 15 -5 0
-15 -7 -22 -15z"/>
<path d="M2201 1324 c0 -11 3 -14 6 -6 3 7 2 16 -1 19 -3 4 -6 -2 -5 -13z"/>
<path d="M2275 1330 c3 -5 8 -10 11 -10 2 0 4 5 4 10 0 6 -5 10 -11 10 -5 0
-7 -4 -4 -10z"/>
<path d="M2633 1325 c-13 -14 -4 -26 28 -38 15 -5 17 4 10 46 -2 12 -25 7 -38
-8z m37 -15 c0 -5 -7 -10 -15 -10 -8 0 -15 5 -15 10 0 6 7 10 15 10 8 0 15 -4
15 -10z"/>
<path d="M1775 1321 c-3 -5 -1 -12 5 -16 5 -3 10 1 10 9 0 18 -6 21 -15 7z"/>
<path d="M2846 1322 c-3 -6 3 -12 15 -15 12 -3 19 -1 16 6 -5 15 -24 20 -31 9z"/>
<path d="M3015 1320 c3 -5 8 -10 11 -10 2 0 4 5 4 10 0 6 -5 10 -11 10 -5 0
-7 -4 -4 -10z"/>
<path d="M1340 1311 c0 -6 5 -13 10 -16 6 -3 10 1 10 9 0 9 -4 16 -10 16 -5 0
-10 -4 -10 -9z"/>
<path d="M1537 1300 c3 -11 9 -20 14 -20 11 0 11 3 3 24 -9 23 -23 20 -17 -4z"/>
<path d="M2230 1316 c0 -3 9 -10 20 -16 11 -6 20 -8 20 -6 0 3 -9 10 -20 16
-11 6 -20 8 -20 6z"/>
<path d="M2470 1306 c0 -9 5 -16 10 -16 6 0 10 4 10 9 0 6 -4 13 -10 16 -5 3
-10 -1 -10 -9z"/>
<path d="M2980 1301 c0 -22 16 -36 24 -22 4 5 2 12 -4 16 -6 4 -8 11 -5 16 4
5 1 9 -4 9 -6 0 -11 -9 -11 -19z"/>
<path d="M3317 1309 c7 -7 15 -10 18 -7 3 3 -2 9 -12 12 -14 6 -15 5 -6 -5z"/>
<path d="M1084 1295 c23 -18 36 -19 36 -4 0 5 -4 8 -9 4 -5 -3 -12 -1 -16 5
-3 5 -12 10 -18 10 -7 0 -3 -7 7 -15z"/>
<path d="M1317 1304 c-3 -4 1 -13 9 -21 19 -20 26 -13 10 9 -7 10 -16 15 -19
12z"/>
<path d="M1460 1300 c0 -5 5 -10 11 -10 5 0 7 5 4 10 -3 6 -8 10 -11 10 -2 0
-4 -4 -4 -10z"/>
<path d="M1670 1299 c0 -5 5 -7 10 -4 6 3 10 2 10 -4 0 -18 -36 -31 -48 -19
-13 13 -16 -1 -4 -17 4 -7 18 -5 38 5 25 13 30 20 22 33 -10 19 -28 23 -28 6z"/>
<path d="M1800 1306 c0 -2 7 -9 15 -16 13 -11 14 -10 9 4 -5 14 -24 23 -24 12z"/>
<path d="M3275 1300 c-3 -5 -2 -10 4 -10 5 0 13 5 16 10 3 6 2 10 -4 10 -5 0
-13 -4 -16 -10z"/>
<path d="M1146 1285 c4 -8 8 -15 10 -15 2 0 4 7 4 15 0 8 -4 15 -10 15 -5 0
-7 -7 -4 -15z"/>
<path d="M2005 1290 c-4 -6 -3 -10 2 -10 4 0 9 -12 10 -27 0 -14 -2 -21 -6
-15 -4 6 -12 7 -20 3 -9 -6 -10 -11 -2 -15 13 -8 56 3 47 11 -3 4 -2 11 4 18
6 7 3 17 -10 28 -11 9 -22 12 -25 7z"/>
<path d="M2720 1290 c0 -5 5 -10 11 -10 5 0 7 5 4 10 -3 6 -8 10 -11 10 -2 0
-4 -4 -4 -10z"/>
<path d="M3033 1280 c-8 -12 -9 -21 -3 -25 6 -3 10 1 10 10 0 9 4 13 10 10 6
-3 7 1 4 9 -8 20 -7 20 -21 -4z"/>
<path d="M1854 1275 c-10 -8 -14 -15 -8 -15 6 0 17 7 24 15 16 19 9 19 -16 0z"/>
<path d="M1904 1280 c-32 -13 -40 -31 -19 -47 24 -17 36 -17 29 1 -3 8 -11 14
-17 12 -7 -1 -9 -1 -4 1 4 3 5 8 3 12 -3 4 12 5 32 3 20 -3 35 -3 32 0 -27 21
-37 25 -56 18z"/>
<path d="M2774 1283 c4 -7 3 -13 -2 -13 -5 0 -9 -6 -9 -13 0 -14 31 -16 44 -3
5 4 1 6 -7 4 -8 -1 -14 2 -15 9 0 6 -4 15 -9 20 -5 5 -6 3 -2 -4z"/>
<path d="M2885 1280 c-3 -5 -2 -10 3 -10 6 0 8 -10 4 -22 -5 -20 -4 -21 11 -9
13 10 14 18 6 32 -11 22 -15 23 -24 9z"/>
<path d="M2950 1280 c0 -5 5 -10 11 -10 5 0 7 5 4 10 -3 6 -8 10 -11 10 -2 0
-4 -4 -4 -10z"/>
<path d="M3155 1280 c-3 -5 -1 -10 4 -10 6 0 11 5 11 10 0 6 -2 10 -4 10 -3 0
-8 -4 -11 -10z"/>
<path d="M1516 1271 c-3 -4 3 -18 13 -30 16 -19 20 -19 25 -5 9 24 8 27 -10
20 -8 -3 -12 -2 -9 3 3 5 1 12 -4 15 -5 4 -12 2 -15 -3z"/>
<path d="M1585 1270 c-3 -5 -1 -10 4 -10 6 0 11 5 11 10 0 6 -2 10 -4 10 -3 0
-8 -4 -11 -10z"/>
<path d="M2472 1271 c-11 -6 -9 -9 6 -13 15 -4 19 -2 15 8 -6 16 -4 16 -21 5z"/>
<path d="M2524 1263 c1 -8 10 -19 18 -24 13 -7 15 -5 11 10 -6 24 -32 36 -29
14z"/>
<path d="M2820 1270 c0 -5 6 -10 14 -10 7 0 19 -7 27 -16 10 -13 10 -17 -2
-24 -10 -7 -16 -4 -21 8 -7 15 -8 15 -5 -2 1 -11 11 -20 25 -22 17 -3 22 1 22
17 0 11 -10 29 -22 40 -26 21 -38 24 -38 9z"/>
<path d="M2930 1272 c0 -4 9 -15 20 -25 11 -9 20 -13 20 -9 0 4 -9 15 -20 25
-11 9 -20 13 -20 9z"/>
<path d="M1250 1255 c7 -9 15 -13 17 -11 7 7 -7 26 -19 26 -6 0 -6 -6 2 -15z"/>
<path d="M1720 1262 c0 -5 11 -7 25 -4 15 2 25 0 25 -7 0 -6 5 -11 10 -11 6 0
10 6 10 13 0 8 -14 14 -35 15 -19 2 -35 -1 -35 -6z"/>
<path d="M2365 1260 c4 -6 11 -8 16 -5 14 9 11 15 -7 15 -8 0 -12 -5 -9 -10z"/>
<path d="M2695 1260 c4 -6 11 -8 16 -5 14 9 11 15 -7 15 -8 0 -12 -5 -9 -10z"/>
<path d="M1420 1250 c0 -5 5 -10 11 -10 5 0 7 5 4 10 -3 6 -8 10 -11 10 -2 0
-4 -4 -4 -10z"/>
<path d="M2238 1253 c7 -3 16 -2 19 1 4 3 -2 6 -13 5 -11 0 -14 -3 -6 -6z"/>
<path d="M1745 1240 c3 -5 8 -10 11 -10 2 0 4 5 4 10 0 6 -5 10 -11 10 -5 0
-7 -4 -4 -10z"/>
<path d="M1930 1234 c0 -8 5 -12 10 -9 6 4 8 11 5 16 -9 14 -15 11 -15 -7z"/>
<path d="M1714 1228 c3 -10 1 -18 -4 -18 -6 0 -10 5 -10 10 0 7 -6 7 -19 1
-10 -6 -22 -7 -26 -3 -5 4 -5 1 -1 -6 4 -7 11 -10 16 -7 5 3 23 -1 39 -10 37
-19 48 -5 20 26 -15 18 -19 19 -15 7z"/>
<path d="M2335 1230 c3 -5 8 -10 11 -10 2 0 4 5 4 10 0 6 -5 10 -11 10 -5 0
-7 -4 -4 -10z"/>
<path d="M2375 1230 c-3 -5 -1 -10 4 -10 6 0 11 5 11 10 0 6 -2 10 -4 10 -3 0
-8 -4 -11 -10z"/>
<path d="M2690 1229 c0 -5 5 -7 10 -4 6 3 10 8 10 11 0 2 -4 4 -10 4 -5 0 -10
-5 -10 -11z"/>
<path d="M2928 1233 c7 -3 16 -2 19 1 4 3 -2 6 -13 5 -11 0 -14 -3 -6 -6z"/>
<path d="M1765 1220 c-3 -5 -2 -10 4 -10 5 0 13 5 16 10 3 6 2 10 -4 10 -5 0
-13 -4 -16 -10z"/>
<path d="M2146 1221 c-3 -5 1 -11 9 -15 8 -3 15 -1 15 4 0 13 -18 22 -24 11z"/>
<path d="M2735 1220 c-3 -6 1 -7 9 -4 18 7 21 14 7 14 -6 0 -13 -4 -16 -10z"/>
<path d="M1090 1209 c0 -5 5 -7 10 -4 6 3 10 8 10 11 0 2 -4 4 -10 4 -5 0 -10
-5 -10 -11z"/>
<path d="M1436 1206 c3 -8 13 -17 21 -20 25 -10 23 -3 -3 17 -18 13 -22 14
-18 3z"/>
<path d="M1590 1203 c0 -7 5 -13 11 -13 6 0 9 -6 6 -14 -3 -8 2 -21 12 -30 17
-15 19 -15 24 -1 4 8 2 15 -3 15 -4 0 -11 13 -15 28 -6 28 -35 41 -35 15z"/>
<path d="M2072 1188 c0 -15 3 -28 8 -28 5 0 6 7 3 17 -4 9 -2 14 3 10 5 -3 10
2 10 12 0 30 -23 20 -24 -11z"/>
<path d="M2900 1210 c0 -5 5 -10 10 -10 6 0 10 5 10 10 0 6 -4 10 -10 10 -5 0
-10 -4 -10 -10z"/>
<path d="M1365 1200 c-3 -5 -1 -10 4 -10 6 0 11 5 11 10 0 6 -2 10 -4 10 -3 0
-8 -4 -11 -10z"/>
<path d="M1537 1203 c-3 -5 5 -8 18 -8 13 0 21 3 18 8 -2 4 -10 7 -18 7 -8 0
-16 -3 -18 -7z"/>
<path d="M1795 1200 c-3 -5 -1 -10 6 -10 7 0 4 -6 -7 -14 -10 -8 -16 -18 -11
-22 4 -4 7 -2 7 5 0 7 4 10 9 7 5 -3 12 1 15 10 3 9 11 12 18 8 9 -5 9 -3 -1
9 -15 19 -27 22 -36 7z"/>
<path d="M2445 1200 c3 -5 8 -10 11 -10 2 0 4 5 4 10 0 6 -5 10 -11 10 -5 0
-7 -4 -4 -10z"/>
<path d="M1035 1190 c-3 -5 -1 -10 4 -10 6 0 11 5 11 10 0 6 -2 10 -4 10 -3 0
-8 -4 -11 -10z"/>
<path d="M1287 1185 c-6 -15 10 -32 20 -21 4 3 1 6 -7 6 -10 0 -10 3 0 15 7 9
8 15 2 15 -5 0 -12 -7 -15 -15z"/>
<path d="M2320 1196 c0 -3 9 -10 20 -16 11 -6 20 -8 20 -6 0 3 -9 10 -20 16
-11 6 -20 8 -20 6z"/>
<path d="M2540 1190 c-9 -6 -10 -10 -3 -10 6 0 15 5 18 10 8 12 4 12 -15 0z"/>
<path d="M2646 1185 c4 -8 10 -12 15 -9 11 6 2 24 -11 24 -5 0 -7 -7 -4 -15z"/>
<path d="M2794 1186 c1 -8 5 -18 8 -22 4 -3 5 1 4 10 -1 8 -5 18 -8 22 -4 3
-5 -1 -4 -10z"/>
<path d="M2840 1189 c-13 -9 -13 -10 1 -6 9 3 23 0 30 -6 11 -10 11 -9 0 6 -7
9 -14 17 -15 17 0 0 -8 -5 -16 -11z"/>
<path d="M2575 1180 c3 -5 8 -10 11 -10 2 0 4 5 4 10 0 6 -5 10 -11 10 -5 0
-7 -4 -4 -10z"/>
<path d="M1050 1171 c-8 -6 -18 -7 -22 -4 -11 6 -38 -16 -38 -30 0 -6 7 -2 15
9 10 13 17 15 22 8 6 -8 14 -5 27 7 21 21 20 24 -4 10z"/>
<path d="M1695 1165 c2 -11 4 -23 4 -26 1 -4 9 -9 19 -12 9 -2 25 -8 35 -12
10 -4 17 -3 17 4 0 6 -6 11 -13 11 -8 0 -19 10 -25 23 -6 12 -11 16 -11 8 -1
-11 -5 -10 -15 5 -15 19 -15 19 -11 -1z"/>
<path d="M2392 1164 c-17 -11 -26 -12 -42 -4 -13 7 -20 7 -20 0 0 -5 7 -10 15
-10 8 0 15 -4 15 -10 0 -12 30 -1 49 17 20 20 8 25 -17 7z"/>
<path d="M2507 1173 c-3 -5 1 -14 9 -21 12 -10 14 -10 14 2 0 17 -16 30 -23
19z"/>
<path d="M2616 1168 c3 -5 10 -6 15 -3 13 9 11 12 -6 12 -8 0 -12 -4 -9 -9z"/>
<path d="M1175 1160 c-3 -5 -1 -10 4 -10 6 0 11 5 11 10 0 6 -2 10 -4 10 -3 0
-8 -4 -11 -10z"/>
<path d="M1330 1159 c0 -5 5 -7 10 -4 6 3 10 8 10 11 0 2 -4 4 -10 4 -5 0 -10
-5 -10 -11z"/>
<path d="M1405 1161 c-3 -5 -2 -12 3 -15 5 -3 9 1 9 9 0 17 -3 19 -12 6z"/>
<path d="M1455 1139 c6 -38 -11 -57 -38 -43 -7 3 -4 -1 6 -9 9 -8 17 -17 17
-20 0 -4 -8 -4 -17 0 -15 5 -14 3 2 -10 11 -9 26 -17 33 -17 6 0 12 -4 12 -9
0 -5 9 -11 20 -14 21 -5 68 28 56 40 -4 4 -10 3 -14 -3 -10 -14 -42 -25 -42
-14 0 5 -9 12 -20 15 -23 7 -25 22 -6 44 11 14 11 21 -1 46 l-14 30 6 -36z"/>
<path d="M1500 1163 c5 -2 8 -9 4 -14 -3 -5 0 -9 6 -9 15 0 7 23 -8 26 -7 1
-8 0 -2 -3z"/>
<path d="M1740 1159 c0 -5 5 -7 10 -4 6 3 10 8 10 11 0 2 -4 4 -10 4 -5 0 -10
-5 -10 -11z"/>
<path d="M1851 1154 c-1 -25 25 -40 33 -19 3 9 0 12 -9 9 -7 -3 -15 2 -18 13
-4 15 -5 15 -6 -3z"/>
<path d="M2840 1163 c0 -4 11 -13 25 -20 14 -6 23 -7 19 -2 -8 13 -44 31 -44
22z"/>
<path d="M1539 1143 c-13 -17 -13 -17 6 -3 11 8 22 16 24 17 2 2 0 3 -6 3 -6
0 -17 -8 -24 -17z"/>
<path d="M2658 1153 c7 -3 16 -2 19 1 4 3 -2 6 -13 5 -11 0 -14 -3 -6 -6z"/>
<path d="M1594 1141 c4 -5 0 -12 -6 -14 -7 -3 -2 -6 11 -6 20 -1 21 1 11 14
-14 16 -25 21 -16 6z"/>
<path d="M2270 1146 c0 -3 14 -14 31 -27 23 -16 33 -19 42 -10 8 8 8 14 -1 23
-9 9 -12 8 -12 -7 0 -16 -2 -16 -19 3 -16 19 -41 30 -41 18z"/>
<path d="M1355 1130 c-19 -8 -19 -9 3 -9 12 -1 22 4 22 9 0 6 -1 10 -2 9 -2 0
-12 -4 -23 -9z"/>
<path d="M1650 1124 c0 -8 5 -12 10 -9 6 3 10 10 10 16 0 5 -4 9 -10 9 -5 0
-10 -7 -10 -16z"/>
<path d="M1430 1119 c0 -5 5 -7 10 -4 6 3 10 8 10 11 0 2 -4 4 -10 4 -5 0 -10
-5 -10 -11z"/>
<path d="M1803 1111 c-10 -15 -9 -20 2 -25 11 -4 15 2 15 19 0 30 -2 31 -17 6z"/>
<path d="M2400 1119 c0 -6 -6 -9 -12 -7 -15 5 -41 -18 -44 -38 -1 -8 13 -2 32
14 30 24 43 42 29 42 -3 0 -5 -5 -5 -11z"/>
<path d="M2500 1120 c0 -5 5 -10 10 -10 6 0 10 5 10 10 0 6 -4 10 -10 10 -5 0
-10 -4 -10 -10z"/>
<path d="M2750 1120 c0 -5 5 -10 10 -10 6 0 10 5 10 10 0 6 -4 10 -10 10 -5 0
-10 -4 -10 -10z"/>
<path d="M1237 1113 c-4 -3 -7 -11 -7 -17 0 -6 5 -5 12 2 6 6 9 14 7 17 -3 3
-9 2 -12 -2z"/>
<path d="M1488 1099 c-23 -25 -23 -27 5 -25 17 1 23 6 19 19 -2 9 1 17 7 17 6
0 11 -5 11 -11 0 -5 5 -7 10 -4 6 4 8 11 5 16 -10 15 -39 9 -57 -12z"/>
<path d="M2435 1110 c3 -5 8 -10 11 -10 2 0 4 5 4 10 0 6 -5 10 -11 10 -5 0
-7 -4 -4 -10z"/>
<path d="M2640 1106 c0 -9 7 -12 21 -9 16 4 17 8 7 14 -19 13 -28 11 -28 -5z"/>
<path d="M1185 1100 c3 -5 8 -10 11 -10 2 0 4 5 4 10 0 6 -5 10 -11 10 -5 0
-7 -4 -4 -10z"/>
<path d="M2691 1096 c-10 -12 -8 -17 9 -26 12 -6 25 -9 28 -5 3 3 -4 8 -16 12
-18 4 -20 8 -11 19 6 8 9 14 6 14 -2 0 -10 -6 -16 -14z"/>
<path d="M2938 1103 c7 -3 16 -2 19 1 4 3 -2 6 -13 5 -11 0 -14 -3 -6 -6z"/>
<path d="M1590 1085 c8 -10 7 -14 -7 -18 -15 -4 -14 -5 3 -6 29 -1 39 25 13
32 -16 4 -18 3 -9 -8z"/>
<path d="M2780 1089 c0 -5 5 -7 10 -4 6 3 10 8 10 11 0 2 -4 4 -10 4 -5 0 -10
-5 -10 -11z"/>
<path d="M1626 1058 c-19 -18 -37 -28 -49 -24 -14 3 -16 1 -7 -8 7 -10 5 -20
-9 -37 -11 -13 -23 -21 -27 -17 -4 4 -2 13 4 21 9 10 4 13 -23 13 -19 0 -35
-4 -35 -9 0 -4 -8 -7 -17 -6 -33 3 -37 -1 -17 -15 11 -9 23 -11 29 -6 15 12
55 1 55 -15 0 -16 -25 -26 -44 -19 -7 3 -16 -2 -19 -10 -4 -10 -1 -13 9 -9 22
8 17 -5 -7 -18 -13 -7 -19 -7 -15 -1 9 15 -5 20 -34 11 -21 -6 -22 -7 -5 -8
16 -1 21 -7 19 -28 -2 -42 -3 -45 -14 -38 -5 3 -10 -1 -10 -10 0 -9 5 -13 10
-10 18 11 32 -6 18 -23 -11 -13 -11 -15 4 -9 9 3 19 1 22 -6 4 -7 4 1 1 16 -5
25 -3 28 15 22 14 -5 28 2 50 23 16 17 32 26 35 22 3 -5 -3 -13 -12 -19 -10
-6 -14 -11 -10 -11 5 0 1 -7 -8 -16 -9 -9 -13 -19 -10 -22 3 -3 26 16 50 43
33 36 42 51 34 61 -7 9 -7 19 1 35 8 14 8 19 1 15 -6 -4 -11 0 -11 8 0 20 -7
20 -26 2 -19 -19 -18 -26 4 -26 15 -1 15 -2 -2 -11 -14 -9 -20 -8 -27 2 -12
20 -12 20 26 63 19 22 35 43 35 48 0 4 10 7 21 5 17 -1 22 4 24 26 2 15 3 26
2 26 -1 -1 -15 -15 -31 -31z m-99 -160 c-7 -4 -18 -8 -26 -8 -11 0 -10 5 4 20
14 15 20 17 26 8 4 -7 3 -16 -4 -20z m73 -7 c0 -12 -20 -25 -27 -18 -7 7 6 27
18 27 5 0 9 -4 9 -9z m-50 -4 c0 -2 -9 -14 -20 -27 -14 -16 -20 -18 -20 -9 0
16 19 39 32 39 4 0 8 -2 8 -3z m-65 -23 c-15 -16 -29 -19 -21 -5 4 5 0 11 -6
14 -7 2 -1 4 14 4 23 0 25 -2 13 -13z m15 -34 c0 -5 -4 -10 -10 -10 -5 0 -10
5 -10 10 0 6 5 10 10 10 6 0 10 -4 10 -10z"/>
<path d="M2496 1065 c-10 -14 -26 -25 -34 -25 -22 0 -5 -13 19 -15 12 -1 18 3
15 11 -6 15 21 27 29 13 4 -5 -1 -16 -9 -25 -9 -9 -13 -21 -9 -27 4 -6 1 -8
-9 -5 -8 4 -20 -2 -26 -13 -10 -16 -9 -19 3 -19 8 0 15 5 15 10 0 6 6 9 13 8
6 -2 12 4 12 14 0 9 9 26 19 37 11 12 14 21 7 21 -6 0 -15 9 -19 20 -7 19 -8
19 -26 -5z"/>
<path d="M2576 1077 c3 -10 9 -15 12 -12 3 3 0 11 -7 18 -10 9 -11 8 -5 -6z"/>
<path d="M2860 1080 c0 -6 7 -10 15 -10 8 0 15 2 15 4 0 2 -7 6 -15 10 -8 3
-15 1 -15 -4z"/>
<path d="M2910 1080 c0 -5 5 -10 10 -10 6 0 10 5 10 10 0 6 -4 10 -10 10 -5 0
-10 -4 -10 -10z"/>
<path d="M1106 1065 c4 -8 11 -15 16 -15 6 0 5 6 -2 15 -7 8 -14 15 -16 15 -2
0 -1 -7 2 -15z"/>
<path d="M2545 1070 c-3 -5 -1 -10 4 -10 6 0 11 5 11 10 0 6 -2 10 -4 10 -3 0
-8 -4 -11 -10z"/>
<path d="M2619 1075 c-1 -5 0 -20 1 -32 1 -13 -4 -23 -10 -23 -6 0 -8 -4 -5
-10 9 -15 25 -12 25 4 0 7 7 19 15 26 17 14 21 35 4 24 -6 -3 -15 0 -20 7 -5
8 -9 10 -10 4z"/>
<path d="M2747 1074 c-4 -4 -7 -17 -7 -28 0 -19 1 -19 17 -3 12 11 14 20 7 27
-6 6 -13 7 -17 4z"/>
<path d="M1735 1060 c-3 -5 -1 -10 4 -10 6 0 11 5 11 10 0 6 -2 10 -4 10 -3 0
-8 -4 -11 -10z"/>
<path d="M1766 1062 c-3 -6 -1 -14 5 -17 14 -9 20 -2 10 14 -6 8 -11 9 -15 3z"/>
<path d="M2306 1044 c-11 -8 -16 -14 -10 -14 13 0 39 18 34 24 -3 2 -14 -2
-24 -10z"/>
<path d="M2875 1039 c-4 -6 -3 -15 3 -21 6 -6 11 -4 15 6 7 18 -9 31 -18 15z"/>
<path d="M1720 1031 c0 -17 18 -21 24 -6 3 9 0 15 -9 15 -8 0 -15 -4 -15 -9z"/>
<path d="M1667 1015 c-4 -8 -2 -17 2 -20 5 -2 11 4 14 15 6 23 -8 27 -16 5z"/>
<path d="M965 1011 c-3 -5 -2 -12 3 -15 5 -3 9 1 9 9 0 17 -3 19 -12 6z"/>
<path d="M990 1010 c0 -5 5 -10 10 -10 6 0 10 5 10 10 0 6 -4 10 -10 10 -5 0
-10 -4 -10 -10z"/>
<path d="M2280 1011 c0 -8 -7 -11 -15 -7 -11 4 -15 -1 -15 -17 l0 -21 22 22
c12 12 19 25 15 28 -4 4 -7 2 -7 -5z"/>
<path d="M2535 1010 c-3 -5 3 -10 14 -10 12 0 21 5 21 10 0 6 -6 10 -14 10 -8
0 -18 -4 -21 -10z"/>
<path d="M2696 1005 c-7 -20 5 -24 33 -14 26 10 24 18 -7 24 -11 2 -23 -3 -26
-10z"/>
<path d="M2400 1000 c0 -5 8 -10 18 -11 13 0 12 -2 -5 -9 -15 -6 -21 -15 -17
-25 4 -10 0 -15 -10 -15 -9 0 -16 -4 -16 -10 0 -12 3 -12 24 -4 9 3 16 11 16
17 0 6 8 19 17 29 15 17 15 20 3 28 -20 13 -30 12 -30 0z"/>
<path d="M2850 994 c0 -8 5 -12 10 -9 6 3 10 10 10 16 0 5 -4 9 -10 9 -5 0
-10 -7 -10 -16z"/>
<path d="M1354 985 c19 -15 19 -15 -5 -42 -13 -15 -27 -30 -30 -33 -15 -13
-17 -39 -2 -44 23 -9 40 6 17 15 -10 5 1 5 26 2 53 -7 60 -11 40 -23 -9 -6
-17 -5 -22 3 -5 8 -15 3 -33 -17 -29 -34 -33 -46 -7 -23 10 10 25 17 33 17 9
0 24 6 35 14 20 15 13 32 -16 38 -27 6 -52 48 -29 48 13 0 38 29 39 44 0 5 -3
7 -6 3 -3 -3 -18 -1 -33 4 -24 9 -25 8 -7 -6z"/>
<path d="M2566 954 c-15 -25 -26 -47 -23 -50 3 -3 10 4 17 15 6 12 17 21 25
21 20 0 19 -16 -1 -24 -9 -4 -14 -9 -11 -12 3 -3 15 -1 26 6 25 13 28 50 4 50
-13 0 -14 3 -5 12 13 13 16 28 5 28 -5 -1 -21 -21 -37 -46z"/>
<path d="M2635 970 c2 -34 22 -47 42 -27 13 13 15 20 5 29 -9 9 -12 9 -12 0 0
-7 -4 -12 -10 -12 -5 0 -10 7 -10 15 0 8 -4 15 -8 15 -5 0 -8 -9 -7 -20z"/>
<path d="M1286 961 c-12 -13 -14 -21 -6 -26 6 -4 9 -13 6 -21 -3 -8 -1 -14 4
-14 12 0 34 40 26 48 -3 3 -6 0 -6 -6 0 -7 -4 -12 -10 -12 -14 0 -12 28 3 33
6 2 9 7 6 11 -3 3 -14 -2 -23 -13z"/>
<path d="M2738 973 c7 -3 16 -2 19 1 4 3 -2 6 -13 5 -11 0 -14 -3 -6 -6z"/>
<path d="M1391 945 c-14 -14 -22 -27 -19 -30 7 -7 48 34 48 47 0 11 -2 10 -29
-17z"/>
<path d="M2509 949 c-10 -15 -21 -19 -41 -15 -21 4 -30 0 -38 -14 -6 -11 -7
-20 -2 -20 6 0 12 -9 15 -20 3 -11 1 -20 -4 -20 -5 0 -9 -10 -9 -22 l1 -23 17
22 c9 12 25 33 34 45 12 15 16 17 12 6 -3 -10 -1 -18 5 -18 6 0 11 7 11 15 0
8 5 15 10 15 12 0 -5 -36 -27 -58 -12 -12 -18 -32 -9 -32 2 0 16 16 30 35 29
38 28 82 -1 71 -13 -5 -13 -2 2 20 20 31 15 42 -6 13z m-34 -49 c-8 -13 -35 0
-35 16 0 12 4 12 20 4 11 -6 18 -15 15 -20z"/>
<path d="M1100 945 c-11 -13 -10 -14 4 -9 9 3 16 10 16 15 0 13 -6 11 -20 -6z"/>
<path d="M1430 939 c0 -5 5 -7 10 -4 6 3 10 8 10 11 0 2 -4 4 -10 4 -5 0 -10
-5 -10 -11z"/>
<path d="M1176 932 c-3 -5 1 -9 9 -9 8 0 15 4 15 9 0 4 -4 8 -9 8 -6 0 -12 -4
-15 -8z"/>
<path d="M1132 919 c2 -7 10 -15 17 -17 8 -3 12 1 9 9 -2 7 -10 15 -17 17 -8
3 -12 -1 -9 -9z"/>
<path d="M1215 920 c-3 -6 1 -7 9 -4 18 7 21 14 7 14 -6 0 -13 -4 -16 -10z"/>
<path d="M2632 918 c3 -7 25 -14 51 -16 39 -3 46 0 41 12 -7 18 -24 22 -24 6
0 -5 -9 -10 -19 -10 -11 0 -23 5 -26 10 -9 14 -27 12 -23 -2z"/>
<path d="M1176 883 c-3 -3 -6 -16 -5 -27 0 -15 2 -17 6 -6 3 8 10 18 16 21 6
4 6 9 -1 12 -5 4 -12 4 -16 0z"/>
<path d="M2558 878 c9 -9 15 -9 24 0 9 9 7 12 -12 12 -19 0 -21 -3 -12 -12z"/>
<path d="M2620 880 c-8 -5 -11 -12 -7 -16 4 -4 15 0 24 9 18 18 8 23 -17 7z"/>
<path d="M2660 880 c0 -5 5 -10 11 -10 5 0 7 5 4 10 -3 6 -8 10 -11 10 -2 0
-4 -4 -4 -10z"/>
<path d="M1247 842 c1 -8 3 -18 3 -24 0 -6 9 -1 20 12 25 29 25 33 1 20 -11
-5 -21 -7 -24 -2 -2 4 -2 1 0 -6z"/>
<path d="M2543 855 c4 -4 -2 -18 -13 -30 -23 -25 -38 -85 -21 -85 6 0 10 3 10
8 -4 24 3 42 17 42 8 0 13 4 9 9 -3 5 1 16 10 24 13 13 12 17 -3 28 -9 7 -14
9 -9 4z"/>
<path d="M2593 844 c4 -4 -2 -14 -12 -23 -10 -9 -21 -25 -25 -37 -6 -19 -3
-21 26 -20 31 1 48 11 48 29 0 5 -9 5 -21 2 -18 -6 -19 -5 -10 13 14 27 14 42
-1 42 -6 0 -8 -3 -5 -6z"/>
<path d="M2630 840 c0 -5 4 -10 9 -10 6 0 13 5 16 10 3 6 -1 10 -9 10 -9 0
-16 -4 -16 -10z"/>
<path d="M1296 823 c-6 -14 -5 -15 5 -6 7 7 10 15 7 18 -3 3 -9 -2 -12 -12z"/>
<path d="M1086 822 c-2 -4 -1 -14 4 -22 7 -11 9 -9 7 8 -1 24 -3 26 -11 14z"/>
<path d="M1110 809 c0 -5 5 -7 10 -4 6 3 10 8 10 11 0 2 -4 4 -10 4 -5 0 -10
-5 -10 -11z"/>
<path d="M1198 813 c7 -3 16 -2 19 1 4 3 -2 6 -13 5 -11 0 -14 -3 -6 -6z"/>
<path d="M2406 811 c-4 -6 -1 -11 6 -11 8 -1 4 -9 -10 -19 -13 -12 -20 -25
-16 -35 3 -9 1 -16 -5 -16 -6 0 -11 -4 -11 -10 0 -5 8 -10 17 -10 9 0 14 3 10
6 -3 4 3 24 14 46 13 26 17 44 11 50 -6 6 -12 6 -16 -1z"/>
<path d="M1260 784 c-11 -12 -10 -18 3 -31 15 -16 16 -14 14 15 -2 37 -1 36
-17 16z"/>
<path d="M1480 789 c0 -5 4 -8 9 -5 5 4 12 0 14 -6 3 -8 6 -6 6 5 1 9 -6 17
-14 17 -8 0 -15 -5 -15 -11z"/>
<path d="M2460 780 c0 -5 5 -10 10 -10 6 0 10 5 10 10 0 6 -4 10 -10 10 -5 0
-10 -4 -10 -10z"/>
<path d="M1310 760 c0 -5 5 -10 11 -10 5 0 7 5 4 10 -3 6 -8 10 -11 10 -2 0
-4 -4 -4 -10z"/>
<path d="M1527 754 c3 -7 9 -14 14 -14 14 0 10 17 -5 23 -10 4 -13 1 -9 -9z"/>
<path d="M2638 733 c-11 -14 -11 -16 3 -11 9 4 22 1 28 -5 6 -6 11 -8 11 -3 0
4 -6 14 -14 21 -12 12 -16 12 -28 -2z"/>
<path d="M983 722 c1 -12 6 -18 15 -15 7 3 10 9 5 12 -4 3 -11 10 -15 15 -4 4
-6 -1 -5 -12z"/>
<path d="M1080 730 c0 -5 7 -7 15 -4 8 4 15 8 15 10 0 2 -7 4 -15 4 -8 0 -15
-4 -15 -10z"/>
<path d="M1380 730 c0 -5 5 -10 11 -10 5 0 7 -5 4 -11 -4 -6 2 -13 14 -16 l21
-5 -21 -19 c-15 -13 -19 -24 -13 -36 7 -16 8 -15 12 5 2 15 9 22 17 18 20 -7
10 56 -12 72 -20 15 -33 16 -33 2z"/>
<path d="M2580 724 c0 -8 5 -12 10 -9 6 3 10 10 10 16 0 5 -4 9 -10 9 -5 0
-10 -7 -10 -16z"/>
<path d="M1081 702 c-6 -2 -11 -11 -10 -20 0 -11 2 -12 6 -4 2 6 16 12 29 12
13 0 24 4 24 8 0 8 -30 10 -49 4z"/>
<path d="M1016 685 c3 -7 12 -16 19 -19 9 -3 12 0 9 9 -3 7 -12 16 -19 19 -9
3 -12 0 -9 -9z"/>
<path d="M2566 683 c-4 -9 -1 -21 5 -27 9 -8 10 -8 5 1 -3 6 -2 14 4 18 12 8
13 25 1 25 -5 0 -12 -8 -15 -17z"/>
<path d="M1328 660 c-14 -17 -23 -30 -20 -30 4 0 0 -5 -8 -10 -13 -8 -13 -10
2 -10 11 0 15 -6 11 -22 -4 -23 -4 -23 17 2 19 21 20 25 6 35 -13 10 -12 14 6
33 12 12 20 24 17 26 -3 3 -17 -8 -31 -24z"/>
<path d="M1375 680 c-3 -5 -2 -10 4 -10 5 0 13 5 16 10 3 6 2 10 -4 10 -5 0
-13 -4 -16 -10z"/>
<path d="M2597 670 c-6 -22 17 -34 32 -16 7 8 5 15 -8 23 -16 10 -20 9 -24 -7z"/>
<path d="M1356 645 c-3 -8 -1 -15 4 -15 6 0 10 7 10 15 0 8 -2 15 -4 15 -2 0
-6 -7 -10 -15z"/>
<path d="M1136 641 c-4 -7 -5 -15 -2 -18 9 -9 19 4 14 18 -4 11 -6 11 -12 0z"/>
<path d="M1215 570 c3 -5 8 -10 11 -10 2 0 4 5 4 10 0 6 -5 10 -11 10 -5 0 -7
-4 -4 -10z"/>
<path d="M3077 3169 c7 -7 15 -10 18 -7 3 3 -2 9 -12 12 -14 6 -15 5 -6 -5z"/>
<path d="M3141 2804 c0 -11 3 -14 6 -6 3 7 2 16 -1 19 -3 4 -6 -2 -5 -13z"/>
<path d="M3321 2774 c0 -11 3 -14 6 -6 3 7 2 16 -1 19 -3 4 -6 -2 -5 -13z"/>
<path d="M2720 1745 c-7 -9 -11 -17 -9 -20 3 -2 10 5 17 15 14 24 10 26 -8 5z"/>
<path d="M3150 1090 c0 -5 4 -10 9 -10 16 0 84 -108 78 -124 -3 -9 -2 -18 3
-21 4 -3 11 1 13 7 4 10 6 10 6 0 1 -7 12 -28 26 -46 19 -25 22 -35 13 -44 -9
-9 -8 -12 5 -12 10 0 20 -7 23 -15 4 -8 12 -15 20 -15 11 0 11 5 2 25 -6 14
-15 25 -20 25 -4 0 -8 7 -8 15 0 8 -4 15 -8 15 -5 0 -17 18 -27 40 -10 22 -22
37 -26 34 -5 -3 -9 1 -9 9 0 8 -11 27 -25 43 -14 16 -25 34 -25 39 -1 14 -50
49 -50 35z"/>
<path d="M3095 1072 c-3 -3 -5 -10 -5 -16 0 -6 4 -5 9 3 7 10 15 4 36 -28 28
-41 41 -49 29 -17 -3 9 -10 16 -15 16 -11 0 -12 27 -1 33 4 2 1 2 -5 1 -7 -2
-13 0 -13 5 0 8 -27 11 -35 3z"/>
<path d="M3050 1054 c0 -9 -5 -12 -12 -8 -7 4 -10 4 -6 -1 4 -4 3 -15 -2 -25
-7 -13 -4 -22 10 -35 18 -16 18 -16 13 6 -5 17 -3 20 8 14 11 -6 12 -5 2 6
-18 18 -16 34 1 20 22 -18 25 2 4 22 -15 15 -18 15 -18 1z"/>
<path d="M3088 980 c2 -16 8 -28 12 -25 9 5 1 55 -9 55 -4 0 -6 -13 -3 -30z"/>
<path d="M3177 957 c-3 -7 6 -23 19 -36 13 -13 27 -34 30 -47 3 -13 10 -22 14
-19 4 3 10 -2 14 -10 8 -22 25 -18 19 5 -3 11 -9 20 -13 20 -5 0 -11 8 -14 18
-10 29 -63 83 -69 69z"/>
<path d="M2960 950 c0 -5 9 -14 20 -20 11 -6 20 -7 20 -3 0 5 -9 14 -20 21
-11 7 -20 8 -20 2z"/>
<path d="M3065 951 c-3 -5 -1 -12 5 -16 5 -3 10 1 10 9 0 18 -6 21 -15 7z"/>
<path d="M3050 914 c0 -5 7 -18 15 -28 8 -11 15 -16 15 -10 0 5 -7 18 -15 28
-8 11 -15 16 -15 10z"/>
<path d="M3120 916 c0 -2 7 -9 15 -16 13 -11 14 -10 9 4 -5 14 -24 23 -24 12z"/>
<path d="M2890 899 c0 -5 5 -7 10 -4 6 3 10 8 10 11 0 2 -4 4 -10 4 -5 0 -10
-5 -10 -11z"/>
<path d="M2847 869 c4 -15 8 -17 14 -8 8 14 3 29 -11 29 -4 0 -6 -9 -3 -21z"/>
<path d="M3156 882 c-3 -5 1 -9 9 -9 8 0 12 4 9 9 -3 4 -7 8 -9 8 -2 0 -6 -4
-9 -8z"/>
<path d="M2978 873 c7 -3 16 -2 19 1 4 3 -2 6 -13 5 -11 0 -14 -3 -6 -6z"/>
<path d="M3140 846 c0 -9 5 -16 10 -16 6 0 10 4 10 9 0 6 -4 13 -10 16 -5 3
-10 -1 -10 -9z"/>
<path d="M3089 837 c-15 -11 -15 -17 -4 -42 l13 -30 -1 30 c-2 23 2 29 15 27
12 -2 16 2 12 13 -7 18 -14 18 -35 2z"/>
<path d="M2858 829 c-3 -8 0 -26 8 -40 14 -25 17 -11 5 31 -5 19 -8 21 -13 9z"/>
<path d="M2980 830 c0 -5 5 -10 11 -10 5 0 7 5 4 10 -3 6 -8 10 -11 10 -2 0
-4 -4 -4 -10z"/>
<path d="M3024 804 c3 -9 6 -20 6 -25 0 -5 8 -9 18 -8 10 0 12 3 5 6 -7 2 -13
13 -13 24 0 10 -5 19 -11 19 -6 0 -8 -7 -5 -16z"/>
<path d="M3196 805 c4 -8 13 -15 21 -15 13 0 13 3 3 15 -7 8 -16 15 -21 15 -5
0 -6 -7 -3 -15z"/>
<path d="M3265 800 c3 -5 8 -10 11 -10 2 0 4 5 4 10 0 6 -5 10 -11 10 -5 0 -7
-4 -4 -10z"/>
<path d="M3321 772 c-1 -20 3 -31 9 -27 6 3 10 1 10 -6 0 -7 3 -9 6 -6 4 4 2
12 -3 19 -6 7 -13 22 -16 33 -3 13 -5 8 -6 -13z"/>
<path d="M3155 781 c-3 -6 -3 -16 1 -23 5 -7 2 -9 -9 -5 -12 5 -15 0 -12 -21
2 -15 4 -30 4 -34 1 -5 5 -8 10 -8 5 0 7 10 3 22 -4 16 -1 20 9 16 10 -4 14 3
14 22 0 32 -10 47 -20 31z"/>
<path d="M3287 764 c-6 -7 2 -36 13 -44 4 -3 12 -18 17 -35 9 -25 12 -27 18
-12 5 12 1 25 -14 41 -13 14 -19 29 -15 39 6 16 -6 23 -19 11z"/>
<path d="M2877 753 c-10 -10 -8 -25 2 -19 5 4 7 -2 4 -13 -3 -10 0 -22 6 -25
7 -5 11 2 11 16 0 27 -14 51 -23 41z"/>
<path d="M2964 735 c1 -18 4 -20 18 -12 12 8 21 7 32 -2 9 -8 16 -9 16 -3 0
13 -20 28 -46 34 -18 5 -21 1 -20 -17z"/>
<path d="M3035 750 c-3 -5 -5 -10 -3 -11 32 -8 48 -7 48 3 0 6 -3 8 -7 5 -3
-4 -12 -2 -19 4 -8 7 -14 7 -19 -1z"/>
<path d="M3214 716 c0 -14 6 -22 13 -19 9 4 10 10 2 24 -13 25 -17 24 -15 -5z"/>
<path d="M2850 721 c0 -5 5 -13 10 -16 6 -3 10 -2 10 4 0 5 -4 13 -10 16 -5 3
-10 2 -10 -4z"/>
<path d="M2935 720 c3 -5 8 -10 11 -10 2 0 4 5 4 10 0 6 -5 10 -11 10 -5 0 -7
-4 -4 -10z"/>
<path d="M2985 710 c-3 -5 -2 -10 4 -10 5 0 13 5 16 10 3 6 2 10 -4 10 -5 0
-13 -4 -16 -10z"/>
<path d="M3063 690 c-3 -11 -9 -17 -14 -14 -5 3 -9 1 -9 -4 0 -6 10 -9 23 -8
18 1 22 6 19 23 -5 28 -12 29 -19 3z"/>
<path d="M2781 674 c0 -11 3 -14 6 -6 3 7 2 16 -1 19 -3 4 -6 -2 -5 -13z"/>
<path d="M3153 664 c-18 -18 -16 -23 7 -21 22 1 24 6 12 23 -5 9 -10 8 -19 -2z"/>
<path d="M3000 661 c0 -6 4 -13 10 -16 6 -3 7 1 4 9 -7 18 -14 21 -14 7z"/>
<path d="M3250 632 c0 -20 4 -31 10 -27 6 3 10 -3 10 -14 0 -11 5 -23 10 -26
6 -3 10 -1 10 5 0 6 5 8 12 4 8 -5 9 -2 5 10 -4 10 -7 20 -7 22 0 3 -5 2 -10
-1 -6 -4 -17 9 -25 27 l-14 33 -1 -33z"/>
<path d="M2745 640 c3 -5 10 -10 16 -10 5 0 9 5 9 10 0 6 -7 10 -16 10 -8 0
-12 -4 -9 -10z"/>
<path d="M3080 635 c0 -15 18 -40 24 -34 3 3 -1 14 -9 25 -8 10 -14 15 -15 9z"/>
<path d="M3015 620 c-3 -5 -1 -10 4 -10 6 0 11 5 11 10 0 6 -2 10 -4 10 -3 0
-8 -4 -11 -10z"/>
<path d="M3064 599 c-3 -6 -15 -9 -25 -6 -20 5 -23 -1 -13 -27 7 -19 24 -21
24 -4 0 6 7 20 17 30 9 10 13 18 10 18 -3 0 -9 -5 -13 -11z"/>
<path d="M3326 590 c3 -14 10 -29 15 -34 14 -16 10 6 -7 34 l-15 25 7 -25z"/>
<path d="M2961 579 c-19 -8 -21 -12 -11 -24 10 -12 10 -15 0 -15 -6 0 -10 -5
-8 -11 2 -6 7 -10 12 -9 5 1 13 -4 18 -12 6 -8 7 -1 3 22 l-6 35 16 -27 c9
-16 23 -28 33 -28 16 1 16 1 0 11 -10 5 -18 21 -18 34 0 30 -9 35 -39 24z"/>
<path d="M3196 566 c5 -22 3 -24 -17 -19 -15 4 -20 3 -15 -6 4 -6 12 -9 17 -6
5 4 9 2 9 -3 0 -22 45 12 46 35 2 18 -3 23 -22 23 -21 0 -23 -4 -18 -24z"/>
<path d="M3107 566 c-4 -9 -2 -18 2 -21 10 -5 3 -44 -8 -46 -3 -1 -18 -2 -33
-3 -14 0 -30 -5 -35 -10 -4 -5 -3 -6 4 -2 12 7 30 -31 19 -41 -3 -4 -6 2 -6
12 0 15 -2 16 -16 4 -14 -12 -13 -14 11 -22 20 -7 30 -6 36 4 5 8 4 15 -1 17
-5 2 4 15 20 29 17 13 30 31 30 39 0 9 5 12 10 9 16 -10 11 4 -9 26 -16 17
-19 18 -24 5z"/>
<path d="M3035 529 c3 -3 16 -6 30 -6 14 0 23 2 20 6 -9 8 -55 9 -50 0z"/>
<path d="M3280 525 c-11 -13 -10 -14 4 -9 9 3 16 10 16 15 0 13 -6 11 -20 -6z"/>
<path d="M3304 489 c-3 -6 -1 -16 5 -22 8 -8 11 -7 11 6 0 11 6 15 18 11 14
-5 15 -4 2 5 -19 14 -27 14 -36 0z"/>
<path d="M2980 455 c0 -9 6 -12 15 -9 8 4 12 10 9 15 -8 14 -24 10 -24 -6z"/>
<path d="M3186 455 c4 -8 10 -15 15 -15 4 0 6 7 3 15 -4 8 -10 15 -15 15 -4 0
-6 -7 -3 -15z"/>
<path d="M3220 450 c0 -5 5 -10 10 -10 6 0 10 5 10 10 0 6 -4 10 -10 10 -5 0
-10 -4 -10 -10z"/>
<path d="M2960 436 c0 -8 4 -17 9 -20 5 -4 7 3 4 14 -6 23 -13 26 -13 6z"/>
<path d="M3316 435 c-3 -8 -1 -15 3 -15 5 0 11 7 15 15 3 8 1 15 -3 15 -5 0
-11 -7 -15 -15z"/>
<path d="M3225 421 c-3 -5 -1 -12 5 -16 5 -3 10 1 10 9 0 18 -6 21 -15 7z"/>
<path d="M3285 420 c3 -5 8 -10 11 -10 2 0 4 5 4 10 0 6 -5 10 -11 10 -5 0 -7
-4 -4 -10z"/>
<path d="M2830 406 c0 -9 5 -16 10 -16 6 0 10 4 10 9 0 6 -4 13 -10 16 -5 3
-10 -1 -10 -9z"/>
<path d="M3090 400 c0 -11 2 -20 5 -20 2 0 9 9 15 20 9 16 8 20 -5 20 -8 0
-15 -9 -15 -20z"/>
<path d="M3262 380 c0 -14 2 -19 5 -12 2 6 2 18 0 25 -3 6 -5 1 -5 -13z"/>
<path d="M3138 373 c-29 -14 -37 -46 -16 -59 8 -5 9 0 5 15 -3 14 -1 21 6 18
7 -2 17 3 23 11 17 23 81 8 87 -21 4 -22 4 -22 6 1 0 13 -6 30 -14 38 -8 9
-15 11 -15 5 0 -6 -11 -7 -27 -2 -18 5 -38 2 -55 -6z"/>
<path d="M3049 363 c-13 -16 -12 -17 4 -4 16 13 21 21 13 21 -2 0 -10 -8 -17
-17z"/>
<path d="M2960 361 c0 -10 19 -25 25 -20 1 2 -3 10 -11 17 -8 7 -14 8 -14 3z"/>
<path d="M3197 339 c7 -7 15 -10 18 -7 3 3 -2 9 -12 12 -14 6 -15 5 -6 -5z"/>
<path d="M2817 319 c-4 -16 -3 -18 9 -8 7 6 11 15 8 20 -8 13 -11 11 -17 -12z"/>
<path d="M3157 333 c-11 -10 -8 -43 3 -43 6 0 10 11 10 25 0 26 -2 29 -13 18z"/>
<path d="M3074 311 c0 -11 4 -17 8 -15 4 3 8 12 8 20 0 8 -4 14 -8 14 -4 0 -8
-9 -8 -19z"/>
<path d="M3051 294 c0 -11 3 -14 6 -6 3 7 2 16 -1 19 -3 4 -6 -2 -5 -13z"/>
<path d="M3015 289 c-10 -15 3 -25 16 -12 7 7 7 13 1 17 -6 3 -14 1 -17 -5z"/>
<path d="M2920 279 c0 -5 5 -7 10 -4 6 3 10 8 10 11 0 2 -4 4 -10 4 -5 0 -10
-5 -10 -11z"/>
<path d="M2967 250 c-6 -17 -17 -28 -23 -26 -8 3 -10 -3 -6 -16 3 -14 1 -19
-6 -14 -6 3 -14 1 -18 -5 -3 -6 0 -15 7 -20 10 -6 8 -9 -8 -9 -15 0 -23 6 -23
17 0 9 -3 14 -6 10 -12 -12 8 -48 24 -43 9 3 24 1 32 -4 13 -8 12 -10 -1 -15
-9 -3 -22 -5 -30 -3 -9 2 -13 -4 -11 -15 2 -12 -2 -17 -12 -15 -14 3 -16 0
-16 -24 0 -9 4 -8 10 2 7 11 10 11 10 2 0 -7 13 1 30 18 35 36 42 37 38 8 -2
-13 2 -23 7 -23 15 0 7 58 -10 71 -13 10 -13 13 -2 23 8 6 17 8 20 5 3 -4 9 6
13 20 3 15 8 25 11 23 5 -5 53 37 53 46 0 4 -6 4 -14 1 -8 -3 -24 0 -36 6 -19
10 -22 8 -33 -20z"/>
<path d="M3240 269 c0 -5 -3 -8 -7 -6 -5 2 -17 -5 -27 -16 -19 -20 -19 -20 0
-15 17 4 19 1 16 -22 -2 -17 3 -31 14 -41 15 -12 16 -12 9 0 -6 11 -3 13 12 9
17 -5 22 0 27 25 8 37 3 43 -18 21 -9 -9 -19 -14 -22 -11 -8 8 6 47 17 47 5 0
9 5 9 10 0 6 -7 10 -15 10 -8 0 -15 -5 -15 -11z"/>
<path d="M3166 227 c3 -10 9 -15 12 -12 3 3 0 11 -7 18 -10 9 -11 8 -5 -6z"/>
<path d="M3080 220 c0 -5 5 -10 10 -10 6 0 10 5 10 10 0 6 -4 10 -10 10 -5 0
-10 -4 -10 -10z"/>
<path d="M3295 180 c3 -5 8 -10 11 -10 2 0 4 5 4 10 0 6 -5 10 -11 10 -5 0 -7
-4 -4 -10z"/>
<path d="M3152 160 c0 -14 2 -19 5 -12 2 6 2 18 0 25 -3 6 -5 1 -5 -13z"/>
<path d="M3180 170 c12 -8 13 -13 3 -29 -8 -13 -9 -22 -3 -26 6 -3 10 -1 10 5
0 6 5 8 12 4 8 -5 9 -2 5 10 -4 10 -7 24 -7 32 0 8 -8 14 -17 14 -15 0 -16 -2
-3 -10z"/>
<path d="M3105 160 c-8 -13 -1 -24 14 -19 6 3 7 10 2 18 -6 10 -10 10 -16 1z"/>
<path d="M2860 129 c0 -11 4 -18 10 -14 5 3 7 12 3 20 -7 21 -13 19 -13 -6z"/>
<path d="M3117 114 c-4 -12 -3 -32 2 -45 6 -14 10 -18 11 -9 1 8 6 4 12 -10 6
-16 12 -20 15 -12 3 7 -2 21 -10 30 -8 9 -17 28 -19 42 -4 24 -4 24 -11 4z"/>
<path d="M3010 105 c-11 -13 -10 -14 4 -9 9 3 16 10 16 15 0 13 -6 11 -20 -6z"/>
<path d="M3050 105 c0 -16 16 -20 24 -6 3 5 -1 11 -9 15 -9 3 -15 0 -15 -9z"/>
<path d="M3221 72 c-1 -13 -5 -21 -10 -17 -5 3 -12 1 -15 -4 -8 -13 6 -20 25
-12 11 4 13 13 8 31 -7 25 -7 25 -8 2z"/>
<path d="M3015 60 c23 -26 29 -26 13 0 -7 11 -17 20 -22 20 -5 0 -1 -9 9 -20z"/>
<path d="M2922 45 c-10 -12 -9 -16 7 -24 23 -13 30 -6 24 20 -6 22 -13 23 -31
4z"/>
<path d="M3070 50 c0 -5 5 -10 10 -10 6 0 10 5 10 10 0 6 -4 10 -10 10 -5 0
-10 -4 -10 -10z"/>
<path d="M2980 16 c0 -9 5 -16 10 -16 6 0 10 4 10 9 0 6 -4 13 -10 16 -5 3
-10 -1 -10 -9z"/>
<path d="M3070 21 c0 -5 7 -11 14 -14 10 -4 13 -1 9 9 -6 15 -23 19 -23 5z"/>
<path d="M3241 14 c0 -11 3 -14 6 -6 3 7 2 16 -1 19 -3 4 -6 -2 -5 -13z"/>
</g>
</svg>
